%TF.GenerationSoftware,KiCad,Pcbnew,(7.0.0)*%
%TF.CreationDate,2023-03-04T17:37:48+02:00*%
%TF.ProjectId,efectul RN  asupra caract de frecv,65666563-7475-46c2-9052-4e2020617375,rev?*%
%TF.SameCoordinates,Original*%
%TF.FileFunction,Copper,L1,Top*%
%TF.FilePolarity,Positive*%
%FSLAX46Y46*%
G04 Gerber Fmt 4.6, Leading zero omitted, Abs format (unit mm)*
G04 Created by KiCad (PCBNEW (7.0.0)) date 2023-03-04 17:37:48*
%MOMM*%
%LPD*%
G01*
G04 APERTURE LIST*
%TA.AperFunction,ComponentPad*%
%ADD10C,1.600000*%
%TD*%
%TA.AperFunction,ComponentPad*%
%ADD11O,1.600000X1.600000*%
%TD*%
%TA.AperFunction,ComponentPad*%
%ADD12C,4.500000*%
%TD*%
%TA.AperFunction,ComponentPad*%
%ADD13R,2.600000X2.600000*%
%TD*%
%TA.AperFunction,ComponentPad*%
%ADD14C,2.600000*%
%TD*%
%TA.AperFunction,ComponentPad*%
%ADD15R,1.700000X1.700000*%
%TD*%
%TA.AperFunction,ComponentPad*%
%ADD16O,1.700000X1.700000*%
%TD*%
%TA.AperFunction,ComponentPad*%
%ADD17R,2.200000X2.200000*%
%TD*%
%TA.AperFunction,ComponentPad*%
%ADD18O,2.200000X2.200000*%
%TD*%
%TA.AperFunction,ComponentPad*%
%ADD19C,3.600000*%
%TD*%
%TA.AperFunction,ConnectorPad*%
%ADD20C,5.700000*%
%TD*%
%TA.AperFunction,ComponentPad*%
%ADD21C,2.800000*%
%TD*%
%TA.AperFunction,ComponentPad*%
%ADD22O,1.200000X1.600000*%
%TD*%
%TA.AperFunction,ComponentPad*%
%ADD23O,1.200000X1.200000*%
%TD*%
%TA.AperFunction,ComponentPad*%
%ADD24R,1.600000X1.600000*%
%TD*%
%TA.AperFunction,ComponentPad*%
%ADD25C,3.200000*%
%TD*%
%TA.AperFunction,ComponentPad*%
%ADD26R,1.800000X1.800000*%
%TD*%
%TA.AperFunction,ComponentPad*%
%ADD27C,1.800000*%
%TD*%
%TA.AperFunction,Conductor*%
%ADD28C,0.600000*%
%TD*%
%TA.AperFunction,Conductor*%
%ADD29C,1.000000*%
%TD*%
G04 APERTURE END LIST*
D10*
%TO.P,R82,1*%
%TO.N,Net-(J3-Pin_4)*%
X189987553Y-59648839D03*
D11*
%TO.P,R82,2*%
%TO.N,+24V*%
X189987552Y-49488838D03*
%TD*%
D12*
%TO.P,J6,1,Pin_1*%
%TO.N,IN1*%
X104500000Y-66000000D03*
%TD*%
D10*
%TO.P,C7,1*%
%TO.N,GND*%
X218772224Y-54541257D03*
%TO.P,C7,2*%
%TO.N,+24V*%
X218772224Y-49541257D03*
%TD*%
%TO.P,R7,1*%
%TO.N,Net-(J3-Pin_1)*%
X182593972Y-73660000D03*
D11*
%TO.P,R7,2*%
%TO.N,Net-(J3-Pin_4)*%
X182593971Y-63499999D03*
%TD*%
D10*
%TO.P,R81,1*%
%TO.N,Net-(J3-Pin_4)*%
X182593972Y-59660000D03*
D11*
%TO.P,R81,2*%
%TO.N,+24V*%
X182593971Y-49499999D03*
%TD*%
D13*
%TO.P,J5,1,Pin_1*%
%TO.N,GND*%
X232999999Y-116999999D03*
D14*
%TO.P,J5,2,Pin_2*%
X233000000Y-112000000D03*
%TD*%
D15*
%TO.P,J3,1,Pin_1*%
%TO.N,Net-(J3-Pin_1)*%
X190000462Y-73648313D03*
D16*
%TO.P,J3,2,Pin_2*%
%TO.N,Net-(J3-Pin_2)*%
X190000462Y-71108313D03*
%TO.P,J3,3,Pin_3*%
X190000462Y-68568313D03*
%TO.P,J3,4,Pin_4*%
%TO.N,Net-(J3-Pin_4)*%
X190000462Y-66028313D03*
%TD*%
D17*
%TO.P,D2,1,K*%
%TO.N,+24V*%
X223496667Y-61999054D03*
D18*
%TO.P,D2,2,A*%
%TO.N,GND*%
X223496667Y-72159054D03*
%TD*%
D19*
%TO.P,H3,1*%
%TO.N,N/C*%
X231400000Y-51100000D03*
D20*
X231400000Y-51100000D03*
%TD*%
D21*
%TO.P,TP11,1,1*%
%TO.N,Net-(Q1-C)*%
X175500000Y-75500000D03*
%TD*%
D13*
%TO.P,J4,1,Pin_1*%
%TO.N,+24V*%
X232999999Y-66999999D03*
D14*
%TO.P,J4,2,Pin_2*%
X233000000Y-62000000D03*
%TD*%
D10*
%TO.P,R0XR1,1*%
%TO.N,GND*%
X222817482Y-112588413D03*
D11*
%TO.P,R0XR1,2*%
%TO.N,Net-(R0XR1-Pad2)*%
X212657481Y-112588412D03*
%TD*%
D10*
%TO.P,R5,1*%
%TO.N,Net-(R5-Pad1)*%
X184080000Y-97500000D03*
D11*
%TO.P,R5,2*%
%TO.N,Net-(Q1-E)*%
X173919999Y-97499999D03*
%TD*%
D21*
%TO.P,TP12,1,1*%
%TO.N,Net-(Q1-E)*%
X176000000Y-90000000D03*
%TD*%
D22*
%TO.P,Q1,1,E*%
%TO.N,Net-(Q1-E)*%
X167982956Y-89766967D03*
D23*
%TO.P,Q1,2,B*%
%TO.N,Net-(J1-Pin_1)*%
X169252956Y-88496967D03*
%TO.P,Q1,3,C*%
%TO.N,Net-(Q1-C)*%
X167982956Y-87226967D03*
%TD*%
D10*
%TO.P,RL1,1*%
%TO.N,Net-(J2-Pin_3)*%
X226000000Y-81887379D03*
D11*
%TO.P,RL1,2*%
%TO.N,GND*%
X225999999Y-92047378D03*
%TD*%
D22*
%TO.P,Q3,1,E*%
%TO.N,GND*%
X152499999Y-101210519D03*
D23*
%TO.P,Q3,2,B*%
%TO.N,Net-(Q3-B)*%
X153769999Y-99940519D03*
%TO.P,Q3,3,C*%
X152499999Y-98670519D03*
%TD*%
D24*
%TO.P,C3,1*%
%TO.N,Net-(C3-Pad1)*%
X186805685Y-123498321D03*
D10*
%TO.P,C3,2*%
%TO.N,GND*%
X186805686Y-120998322D03*
%TD*%
D12*
%TO.P,TP3,1,1*%
%TO.N,GND*%
X232000000Y-101500000D03*
%TD*%
D10*
%TO.P,Rix1,1*%
%TO.N,Net-(J1-Pin_3)*%
X136252957Y-88500000D03*
D11*
%TO.P,Rix1,2*%
%TO.N,Net-(J1-Pin_1)*%
X146412956Y-88499999D03*
%TD*%
D12*
%TO.P,TP1,1,1*%
%TO.N,GND*%
X141000000Y-122000000D03*
%TD*%
%TO.P,TP4,1,1*%
%TO.N,GND*%
X117000000Y-122000000D03*
%TD*%
D21*
%TO.P,TP10,1,1*%
%TO.N,Net-(J3-Pin_1)*%
X197632215Y-73641464D03*
%TD*%
D24*
%TO.P,C8,1*%
%TO.N,+24V*%
X209999999Y-49564686D03*
D10*
%TO.P,C8,2*%
%TO.N,GND*%
X210000000Y-53064687D03*
%TD*%
D19*
%TO.P,H2,1*%
%TO.N,N/C*%
X104600000Y-51100000D03*
D20*
X104600000Y-51100000D03*
%TD*%
D10*
%TO.P,R13,1*%
%TO.N,+24V*%
X199745800Y-49539662D03*
D11*
%TO.P,R13,2*%
%TO.N,Net-(D1-A)*%
X199745799Y-59699661D03*
%TD*%
D21*
%TO.P,TP9,1,1*%
%TO.N,Net-(Q2-C)*%
X197500000Y-88000000D03*
%TD*%
D12*
%TO.P,TP2,1,1*%
%TO.N,GND*%
X168000000Y-129500000D03*
%TD*%
D25*
%TO.P,S1,1*%
%TO.N,Net-(C2-Pad2)*%
X205208409Y-123486361D03*
%TO.P,S1,2*%
%TO.N,Net-(R5-Pad1)*%
X200608409Y-123486361D03*
%TO.P,S1,3*%
%TO.N,Net-(C3-Pad1)*%
X196008409Y-123486361D03*
%TO.P,S1,4*%
%TO.N,unconnected-(S1-Pad4)*%
X205208409Y-119166361D03*
%TO.P,S1,5*%
%TO.N,Net-(C4-Pad2)*%
X200608409Y-119166361D03*
%TO.P,S1,6*%
%TO.N,GND*%
X196008409Y-119166361D03*
%TO.P,S1,7*%
%TO.N,Net-(R0XR1-Pad2)*%
X205208409Y-112566361D03*
%TO.P,S1,8*%
%TO.N,Net-(J2-Pin_1)*%
X200608409Y-112566361D03*
%TO.P,S1,9*%
%TO.N,Net-(R0XA1-Pad2)*%
X196008409Y-112686361D03*
%TD*%
D22*
%TO.P,Q4,1,E*%
%TO.N,+24V*%
X168003152Y-62506444D03*
D23*
%TO.P,Q4,2,B*%
%TO.N,Net-(Q4-B)*%
X166733152Y-63776444D03*
%TO.P,Q4,3,C*%
X168003152Y-65046444D03*
%TD*%
D21*
%TO.P,TP5,1,1*%
%TO.N,Net-(J2-Pin_3)*%
X232000000Y-81862658D03*
%TD*%
D12*
%TO.P,J7,1,Pin_1*%
%TO.N,IN2*%
X104469226Y-88438745D03*
%TD*%
D19*
%TO.P,H1,1*%
%TO.N,N/C*%
X104600000Y-127900000D03*
D20*
X104600000Y-127900000D03*
%TD*%
D10*
%TO.P,R3,1*%
%TO.N,Net-(J1-Pin_1)*%
X160370184Y-80580000D03*
D11*
%TO.P,R3,2*%
%TO.N,Net-(R1-Pad1)*%
X160370183Y-70419999D03*
%TD*%
D26*
%TO.P,D1,1,K*%
%TO.N,GND*%
X199764838Y-67039999D03*
D27*
%TO.P,D1,2,A*%
%TO.N,Net-(D1-A)*%
X199764839Y-64500000D03*
%TD*%
D21*
%TO.P,TP7,1,1*%
%TO.N,IN1*%
X113500000Y-60500000D03*
%TD*%
D10*
%TO.P,R12,1*%
%TO.N,IN2*%
X113500000Y-101000000D03*
D11*
%TO.P,R12,2*%
%TO.N,GND*%
X113499999Y-111159999D03*
%TD*%
D22*
%TO.P,Q2,1,E*%
%TO.N,Net-(J3-Pin_1)*%
X182577884Y-79342007D03*
D23*
%TO.P,Q2,2,B*%
%TO.N,Net-(Q1-C)*%
X181307884Y-80612007D03*
%TO.P,Q2,3,C*%
%TO.N,Net-(Q2-C)*%
X182577884Y-81882007D03*
%TD*%
D24*
%TO.P,C4,1*%
%TO.N,Net-(C4-Pad1)*%
X190999999Y-98499999D03*
D10*
%TO.P,C4,2*%
%TO.N,Net-(C4-Pad2)*%
X191000000Y-101000000D03*
%TD*%
D24*
%TO.P,C5,1*%
%TO.N,Net-(Q2-C)*%
X208999999Y-81900409D03*
D10*
%TO.P,C5,2*%
%TO.N,Net-(J2-Pin_3)*%
X212500000Y-81900410D03*
%TD*%
D15*
%TO.P,J2,1,Pin_1*%
%TO.N,Net-(J2-Pin_1)*%
X215959999Y-99999999D03*
D16*
%TO.P,J2,2,Pin_2*%
X218499999Y-99999999D03*
%TO.P,J2,3,Pin_3*%
%TO.N,Net-(J2-Pin_3)*%
X221039999Y-99999999D03*
%TD*%
D10*
%TO.P,R6,1*%
%TO.N,Net-(Q1-C)*%
X168000000Y-80616136D03*
D11*
%TO.P,R6,2*%
%TO.N,Net-(Q4-B)*%
X167999999Y-70456135D03*
%TD*%
D24*
%TO.P,C6,1*%
%TO.N,Net-(J3-Pin_2)*%
X209546979Y-71140182D03*
D10*
%TO.P,C6,2*%
%TO.N,GND*%
X212046980Y-71140183D03*
%TD*%
D24*
%TO.P,C1,1*%
%TO.N,Net-(J1-Pin_3)*%
X126752956Y-88499999D03*
D10*
%TO.P,C1,2*%
%TO.N,IN2*%
X124252957Y-88500000D03*
%TD*%
%TO.P,R1,1*%
%TO.N,Net-(R1-Pad1)*%
X160370184Y-59580000D03*
D11*
%TO.P,R1,2*%
%TO.N,+24V*%
X160370183Y-49419999D03*
%TD*%
D10*
%TO.P,R0XA1,1*%
%TO.N,GND*%
X178420000Y-112673505D03*
D11*
%TO.P,R0XA1,2*%
%TO.N,Net-(R0XA1-Pad2)*%
X188579999Y-112673504D03*
%TD*%
D21*
%TO.P,TP8,1,1*%
%TO.N,+24V*%
X154030866Y-49427642D03*
%TD*%
D10*
%TO.P,R9,1*%
%TO.N,GND*%
X209000000Y-99580000D03*
D11*
%TO.P,R9,2*%
%TO.N,Net-(Q2-C)*%
X208999999Y-89419999D03*
%TD*%
D21*
%TO.P,TP6,1,1*%
%TO.N,IN2*%
X117500000Y-83500000D03*
%TD*%
D10*
%TO.P,R2,1*%
%TO.N,Net-(Q3-B)*%
X152500000Y-80580000D03*
D11*
%TO.P,R2,2*%
%TO.N,Net-(R1-Pad1)*%
X152499999Y-70419999D03*
%TD*%
D15*
%TO.P,J1,1,Pin_1*%
%TO.N,Net-(J1-Pin_1)*%
X143752956Y-80999999D03*
D16*
%TO.P,J1,2,Pin_2*%
X141212956Y-80999999D03*
%TO.P,J1,3,Pin_3*%
%TO.N,Net-(J1-Pin_3)*%
X138672956Y-80999999D03*
%TD*%
D24*
%TO.P,C2,1*%
%TO.N,Net-(Q2-C)*%
X201499999Y-98317620D03*
D10*
%TO.P,C2,2*%
%TO.N,Net-(C2-Pad2)*%
X201500000Y-100817621D03*
%TD*%
%TO.P,R10,1*%
%TO.N,Net-(C4-Pad1)*%
X191000000Y-92080000D03*
D11*
%TO.P,R10,2*%
%TO.N,Net-(Q2-C)*%
X190999999Y-81919999D03*
%TD*%
D10*
%TO.P,R4,1*%
%TO.N,GND*%
X168001127Y-107671001D03*
D11*
%TO.P,R4,2*%
%TO.N,Net-(Q1-E)*%
X168001126Y-97511000D03*
%TD*%
D19*
%TO.P,H4,1*%
%TO.N,N/C*%
X231400000Y-127900000D03*
D20*
X231400000Y-127900000D03*
%TD*%
D10*
%TO.P,R11,1*%
%TO.N,IN1*%
X113500000Y-65920000D03*
D11*
%TO.P,R11,2*%
%TO.N,IN2*%
X113499999Y-76079999D03*
%TD*%
D28*
%TO.N,Net-(J1-Pin_3)*%
X136252957Y-88500000D02*
X136252957Y-86247043D01*
X126752957Y-88500000D02*
X136252957Y-88500000D01*
X136252957Y-86247043D02*
X138672957Y-83827043D01*
X138672957Y-83827043D02*
X138672957Y-81000000D01*
%TO.N,IN2*%
X117500000Y-83500000D02*
X117500000Y-88438745D01*
X117500000Y-88438745D02*
X124191702Y-88438745D01*
X104469226Y-88438745D02*
X117500000Y-88438745D01*
X124191702Y-88438745D02*
X124252957Y-88500000D01*
X113500000Y-76080000D02*
X113500000Y-101000000D01*
%TO.N,Net-(Q2-C)*%
X197500000Y-81882008D02*
X201500000Y-81882008D01*
X201500000Y-98317621D02*
X201500000Y-81882008D01*
X201500000Y-81882008D02*
X208981598Y-81882008D01*
X208985562Y-89705658D02*
X208985562Y-81914848D01*
X197500000Y-88000000D02*
X197500000Y-81882008D01*
X208985562Y-81914848D02*
X209000000Y-81900410D01*
X208981598Y-81882008D02*
X209000000Y-81900410D01*
X182577885Y-81882008D02*
X197500000Y-81882008D01*
%TO.N,Net-(C3-Pad1)*%
X195996448Y-123498322D02*
X196008409Y-123486361D01*
X186805686Y-123498322D02*
X195996448Y-123498322D01*
%TO.N,GND*%
X226500000Y-113500000D02*
X226500000Y-117000000D01*
D29*
X211500000Y-130000000D02*
X181000000Y-130000000D01*
D28*
X234159055Y-72159055D02*
X223496668Y-72159055D01*
X193333639Y-119166361D02*
X196008409Y-119166361D01*
X186805686Y-120998322D02*
X182001678Y-120998322D01*
X216540000Y-67040000D02*
X221659055Y-72159055D01*
X212046980Y-71140183D02*
X212046980Y-67086980D01*
D29*
X233000000Y-112000000D02*
X233000000Y-113500000D01*
D28*
X235500000Y-94000000D02*
X232000000Y-97500000D01*
X235452621Y-92047379D02*
X235500000Y-92000000D01*
D29*
X232000000Y-106500000D02*
X233000000Y-107500000D01*
X233000000Y-113500000D02*
X233000000Y-117000000D01*
D28*
X222817482Y-112588413D02*
X225588413Y-112588413D01*
X152500000Y-101210520D02*
X152500000Y-106500000D01*
X221659055Y-72159055D02*
X223496668Y-72159055D01*
D29*
X211500000Y-130000000D02*
X224500000Y-117000000D01*
D28*
X168327622Y-112673505D02*
X168001127Y-113000000D01*
X212046980Y-67086980D02*
X212000000Y-67040000D01*
X235500000Y-92000000D02*
X235500000Y-94000000D01*
X191501678Y-120998322D02*
X193333639Y-119166361D01*
X168001127Y-129998873D02*
X168000000Y-130000000D01*
X186805686Y-120998322D02*
X191501678Y-120998322D01*
X211500000Y-130000000D02*
X222817482Y-118682518D01*
D29*
X149000000Y-130000000D02*
X168000000Y-130000000D01*
D28*
X232952621Y-92047379D02*
X235452621Y-92047379D01*
X168001127Y-113000000D02*
X168001127Y-129998873D01*
D29*
X226500000Y-117000000D02*
X233000000Y-117000000D01*
D28*
X168001127Y-107671001D02*
X168001127Y-113000000D01*
X218772224Y-54541257D02*
X210041257Y-54541257D01*
X153671001Y-107671001D02*
X168001127Y-107671001D01*
X232411587Y-112588413D02*
X233000000Y-112000000D01*
X178420000Y-112673505D02*
X168327622Y-112673505D01*
D29*
X181000000Y-130000000D02*
X168000000Y-130000000D01*
D28*
X225588413Y-112588413D02*
X226500000Y-113500000D01*
D29*
X233000000Y-107500000D02*
X233000000Y-113500000D01*
D28*
X152500000Y-106500000D02*
X153671001Y-107671001D01*
X210041257Y-54541257D02*
X210000000Y-54500000D01*
X232000000Y-97500000D02*
X232000000Y-101500000D01*
X212000000Y-67040000D02*
X216540000Y-67040000D01*
X235500000Y-92000000D02*
X235500000Y-73500000D01*
X181000000Y-122000000D02*
X181000000Y-130000000D01*
X117000000Y-117500000D02*
X117000000Y-122000000D01*
D29*
X232000000Y-101500000D02*
X232000000Y-106500000D01*
X117000000Y-122000000D02*
X141000000Y-122000000D01*
D28*
X113500000Y-114000000D02*
X117000000Y-117500000D01*
X210000000Y-54500000D02*
X210000000Y-67040000D01*
X210000000Y-67040000D02*
X212000000Y-67040000D01*
X182001678Y-120998322D02*
X181000000Y-122000000D01*
X210000000Y-53064687D02*
X210000000Y-54500000D01*
X199764839Y-67040000D02*
X210000000Y-67040000D01*
X235500000Y-73500000D02*
X234159055Y-72159055D01*
D29*
X224500000Y-117000000D02*
X226500000Y-117000000D01*
X141000000Y-122000000D02*
X149000000Y-130000000D01*
D28*
X226000000Y-92047379D02*
X232952621Y-92047379D01*
X113500000Y-111160000D02*
X113500000Y-114000000D01*
%TO.N,Net-(C4-Pad1)*%
X191000000Y-92080000D02*
X191000000Y-98500000D01*
%TO.N,Net-(J2-Pin_3)*%
X212500000Y-81900410D02*
X221000000Y-81900410D01*
X232094913Y-81862658D02*
X226024721Y-81862658D01*
X221000000Y-81900410D02*
X225986969Y-81900410D01*
X225986969Y-81900410D02*
X226000000Y-81887379D01*
X226024721Y-81862658D02*
X226000000Y-81887379D01*
X221040000Y-81940410D02*
X221000000Y-81900410D01*
X221040000Y-100000000D02*
X221040000Y-81940410D01*
%TO.N,Net-(J3-Pin_2)*%
X209546980Y-71140183D02*
X190032332Y-71140183D01*
X190000463Y-71108314D02*
X190000463Y-68568314D01*
X190032332Y-71140183D02*
X190000463Y-71108314D01*
D29*
%TO.N,+24V*%
X189987553Y-49488839D02*
X199694977Y-49488839D01*
X232999055Y-61999055D02*
X233000000Y-62000000D01*
X168000000Y-49420000D02*
X182513972Y-49420000D01*
X218748794Y-49564687D02*
X218772224Y-49541257D01*
X218772224Y-49541257D02*
X221041257Y-49541257D01*
X160362542Y-49427642D02*
X160370184Y-49420000D01*
X210000000Y-49564687D02*
X218748794Y-49564687D01*
X182513972Y-49420000D02*
X182593972Y-49500000D01*
X209974975Y-49539662D02*
X210000000Y-49564687D01*
X233000000Y-67000000D02*
X233000000Y-62000000D01*
D28*
X168003153Y-62506445D02*
X168003153Y-49423153D01*
D29*
X223496668Y-61999055D02*
X232999055Y-61999055D01*
X221041257Y-49541257D02*
X223496668Y-51996668D01*
X199694977Y-49488839D02*
X199745800Y-49539662D01*
X182593972Y-49500000D02*
X189976392Y-49500000D01*
D28*
X168003153Y-49423153D02*
X168000000Y-49420000D01*
D29*
X154030866Y-49427642D02*
X160362542Y-49427642D01*
X223496668Y-51996668D02*
X223496668Y-61999055D01*
X160370184Y-49420000D02*
X168000000Y-49420000D01*
X199745800Y-49539662D02*
X209974975Y-49539662D01*
X189976392Y-49500000D02*
X189987553Y-49488839D01*
D28*
%TO.N,Net-(D1-A)*%
X199745800Y-59699662D02*
X199745800Y-64480961D01*
X199745800Y-64480961D02*
X199764839Y-64500000D01*
%TO.N,Net-(J1-Pin_1)*%
X160370184Y-80580000D02*
X160370184Y-88337152D01*
X143752957Y-81000000D02*
X143752957Y-83752957D01*
X146412957Y-88500000D02*
X146445989Y-88466968D01*
X143752957Y-83752957D02*
X146412957Y-86412957D01*
X160500000Y-88466968D02*
X169222957Y-88466968D01*
X141212957Y-81000000D02*
X143752957Y-81000000D01*
X160370184Y-88337152D02*
X160500000Y-88466968D01*
X146412957Y-86412957D02*
X146412957Y-88500000D01*
X169222957Y-88466968D02*
X169252957Y-88496968D01*
X146445989Y-88466968D02*
X160500000Y-88466968D01*
%TO.N,Net-(J2-Pin_1)*%
X215960000Y-103040000D02*
X215960000Y-100000000D01*
X214500000Y-104500000D02*
X215960000Y-103040000D01*
X200608409Y-106391591D02*
X202500000Y-104500000D01*
X200608409Y-112566361D02*
X200608409Y-106391591D01*
X215960000Y-100000000D02*
X218500000Y-100000000D01*
X202500000Y-104500000D02*
X214500000Y-104500000D01*
%TO.N,Net-(J3-Pin_1)*%
X182593972Y-73660000D02*
X182593972Y-79325921D01*
X197632215Y-73641464D02*
X190007313Y-73641464D01*
X190000463Y-73648314D02*
X182605658Y-73648314D01*
X182605658Y-73648314D02*
X182593972Y-73660000D01*
X182593972Y-79325921D02*
X182577885Y-79342008D01*
X190007313Y-73641464D02*
X190000463Y-73648314D01*
%TO.N,Net-(J3-Pin_4)*%
X190000463Y-66028314D02*
X190000463Y-59661749D01*
X182593972Y-59660000D02*
X189976392Y-59660000D01*
X182593972Y-59660000D02*
X182593972Y-63500000D01*
X190000463Y-59661749D02*
X189987553Y-59648839D01*
X189976392Y-59660000D02*
X189987553Y-59648839D01*
%TO.N,IN1*%
X104500000Y-66000000D02*
X113420000Y-66000000D01*
X113500000Y-59000000D02*
X113500000Y-65920000D01*
X113420000Y-66000000D02*
X113500000Y-65920000D01*
%TO.N,Net-(Q1-C)*%
X175500000Y-80612008D02*
X168004128Y-80612008D01*
X175500000Y-75500000D02*
X175500000Y-80612008D01*
X181307885Y-80612008D02*
X175500000Y-80612008D01*
X168000000Y-87209925D02*
X167982957Y-87226968D01*
X168000000Y-80616136D02*
X168000000Y-87209925D01*
X168004128Y-80612008D02*
X168000000Y-80616136D01*
%TO.N,Net-(Q1-E)*%
X167990126Y-97500000D02*
X168001127Y-97511001D01*
X173920000Y-94580000D02*
X173920000Y-97500000D01*
X168001127Y-97511001D02*
X168001127Y-89785138D01*
X168001127Y-89785138D02*
X167982957Y-89766968D01*
X168012128Y-97500000D02*
X168001127Y-97511001D01*
X173920000Y-97500000D02*
X168012128Y-97500000D01*
X176000000Y-92500000D02*
X173920000Y-94580000D01*
X176000000Y-90000000D02*
X176000000Y-92500000D01*
%TO.N,Net-(Q4-B)*%
X168000000Y-70456136D02*
X168000000Y-65049598D01*
X168003153Y-65046445D02*
X166733153Y-63776445D01*
X168000000Y-65049598D02*
X168003153Y-65046445D01*
%TO.N,Net-(R0XA1-Pad2)*%
X195995553Y-112673505D02*
X196008409Y-112686361D01*
X188580000Y-112673505D02*
X195995553Y-112673505D01*
%TO.N,Net-(R0XR1-Pad2)*%
X212635430Y-112566361D02*
X212657482Y-112588413D01*
X205208409Y-112566361D02*
X212635430Y-112566361D01*
%TO.N,Net-(R1-Pad1)*%
X160370184Y-59580000D02*
X160370184Y-70420000D01*
X152500000Y-70420000D02*
X160370184Y-70420000D01*
%TO.N,Net-(R5-Pad1)*%
X184080000Y-97500000D02*
X184000000Y-97580000D01*
%TD*%
M02*
