M48
; DRILL file {KiCad (7.0.0)} date Sat Mar  4 17:37:50 2023
; FORMAT={-:-/ absolute / metric / decimal}
; #@! TF.CreationDate,2023-03-04T17:37:50+02:00
; #@! TF.GenerationSoftware,Kicad,Pcbnew,(7.0.0)
; #@! TF.FileFunction,Plated,1,2,PTH
FMAT,2
METRIC
; #@! TA.AperFunction,Plated,PTH,ComponentDrill
T1C0.700
; #@! TA.AperFunction,Plated,PTH,ComponentDrill
T2C0.800
; #@! TA.AperFunction,Plated,PTH,ComponentDrill
T3C0.900
; #@! TA.AperFunction,Plated,PTH,ComponentDrill
T4C1.000
; #@! TA.AperFunction,Plated,PTH,ComponentDrill
T5C1.100
; #@! TA.AperFunction,Plated,PTH,ComponentDrill
T6C1.300
; #@! TA.AperFunction,Plated,PTH,ComponentDrill
T7C1.600
; #@! TA.AperFunction,Plated,PTH,ComponentDrill
T8C1.650
; #@! TA.AperFunction,Plated,PTH,ComponentDrill
T9C2.520
; #@! TA.AperFunction,Plated,PTH,ComponentDrill
T10C3.200
%
G90
G05
T1
X152.5Y-98.671
X152.5Y-101.211
X153.77Y-99.941
X166.733Y-63.776
X167.983Y-87.227
X167.983Y-89.767
X168.003Y-62.506
X168.003Y-65.046
X169.253Y-88.497
X181.308Y-80.612
X182.578Y-79.342
X182.578Y-81.882
T2
X113.5Y-65.92
X113.5Y-76.08
X113.5Y-101.0
X113.5Y-111.16
X124.253Y-88.5
X126.753Y-88.5
X136.253Y-88.5
X146.413Y-88.5
X152.5Y-70.42
X152.5Y-80.58
X160.37Y-49.42
X160.37Y-59.58
X160.37Y-70.42
X160.37Y-80.58
X168.0Y-70.456
X168.0Y-80.616
X168.001Y-97.511
X168.001Y-107.671
X173.92Y-97.5
X178.42Y-112.674
X182.594Y-49.5
X182.594Y-59.66
X182.594Y-63.5
X182.594Y-73.66
X184.08Y-97.5
X186.806Y-120.998
X186.806Y-123.498
X188.58Y-112.674
X189.988Y-49.489
X189.988Y-59.649
X191.0Y-81.92
X191.0Y-92.08
X191.0Y-98.5
X191.0Y-101.0
X199.746Y-49.54
X199.746Y-59.7
X201.5Y-98.318
X201.5Y-100.818
X209.0Y-81.9
X209.0Y-89.42
X209.0Y-99.58
X209.547Y-71.14
X210.0Y-49.565
X210.0Y-53.065
X212.047Y-71.14
X212.5Y-81.9
X212.657Y-112.588
X218.772Y-49.541
X218.772Y-54.541
X222.817Y-112.588
X226.0Y-81.887
X226.0Y-92.047
T3
X199.765Y-64.5
X199.765Y-67.04
T4
X138.673Y-81.0
X141.213Y-81.0
X143.753Y-81.0
X190.0Y-66.028
X190.0Y-68.568
X190.0Y-71.108
X190.0Y-73.648
X215.96Y-100.0
X218.5Y-100.0
X221.04Y-100.0
T5
X223.497Y-61.999
X223.497Y-72.159
T6
X233.0Y-62.0
X233.0Y-67.0
X233.0Y-112.0
X233.0Y-117.0
T7
X113.5Y-60.5
X117.5Y-83.5
X154.031Y-49.428
X175.5Y-75.5
X176.0Y-90.0
X197.5Y-88.0
X197.632Y-73.641
X232.0Y-81.863
T8
X196.008Y-112.686
X196.008Y-119.166
X196.008Y-123.486
X200.608Y-112.566
X200.608Y-119.166
X200.608Y-123.486
X205.208Y-112.566
X205.208Y-119.166
X205.208Y-123.486
T9
X104.469Y-88.439
X104.5Y-66.0
X117.0Y-122.0
X141.0Y-122.0
X168.0Y-129.5
X232.0Y-101.5
T10
X104.6Y-51.1
X104.6Y-127.9
X231.4Y-51.1
X231.4Y-127.9
T0
M30
