%TF.GenerationSoftware,KiCad,Pcbnew,(7.0.0)*%
%TF.CreationDate,2023-03-04T17:37:48+02:00*%
%TF.ProjectId,efectul RN  asupra caract de frecv,65666563-7475-46c2-9052-4e2020617375,rev?*%
%TF.SameCoordinates,Original*%
%TF.FileFunction,Legend,Top*%
%TF.FilePolarity,Positive*%
%FSLAX46Y46*%
G04 Gerber Fmt 4.6, Leading zero omitted, Abs format (unit mm)*
G04 Created by KiCad (PCBNEW (7.0.0)) date 2023-03-04 17:37:48*
%MOMM*%
%LPD*%
G01*
G04 APERTURE LIST*
%ADD10C,0.300000*%
%ADD11C,0.150000*%
%ADD12C,0.120000*%
G04 APERTURE END LIST*
D10*
X212678572Y-128672142D02*
X212535714Y-128743571D01*
X212535714Y-128743571D02*
X212250000Y-128743571D01*
X212250000Y-128743571D02*
X212107143Y-128672142D01*
X212107143Y-128672142D02*
X212035714Y-128600714D01*
X212035714Y-128600714D02*
X211964286Y-128457857D01*
X211964286Y-128457857D02*
X211964286Y-128029285D01*
X211964286Y-128029285D02*
X212035714Y-127886428D01*
X212035714Y-127886428D02*
X212107143Y-127815000D01*
X212107143Y-127815000D02*
X212250000Y-127743571D01*
X212250000Y-127743571D02*
X212535714Y-127743571D01*
X212535714Y-127743571D02*
X212678572Y-127815000D01*
X213964286Y-127743571D02*
X213964286Y-128743571D01*
X213321428Y-127743571D02*
X213321428Y-128529285D01*
X213321428Y-128529285D02*
X213392857Y-128672142D01*
X213392857Y-128672142D02*
X213535714Y-128743571D01*
X213535714Y-128743571D02*
X213750000Y-128743571D01*
X213750000Y-128743571D02*
X213892857Y-128672142D01*
X213892857Y-128672142D02*
X213964286Y-128600714D01*
X209050000Y-131173571D02*
X209050000Y-130173571D01*
X209050000Y-130459285D02*
X209121429Y-130316428D01*
X209121429Y-130316428D02*
X209192858Y-130245000D01*
X209192858Y-130245000D02*
X209335715Y-130173571D01*
X209335715Y-130173571D02*
X209478572Y-130173571D01*
X210550000Y-131102142D02*
X210407143Y-131173571D01*
X210407143Y-131173571D02*
X210121429Y-131173571D01*
X210121429Y-131173571D02*
X209978571Y-131102142D01*
X209978571Y-131102142D02*
X209907143Y-130959285D01*
X209907143Y-130959285D02*
X209907143Y-130387857D01*
X209907143Y-130387857D02*
X209978571Y-130245000D01*
X209978571Y-130245000D02*
X210121429Y-130173571D01*
X210121429Y-130173571D02*
X210407143Y-130173571D01*
X210407143Y-130173571D02*
X210550000Y-130245000D01*
X210550000Y-130245000D02*
X210621429Y-130387857D01*
X210621429Y-130387857D02*
X210621429Y-130530714D01*
X210621429Y-130530714D02*
X209907143Y-130673571D01*
X211907143Y-131173571D02*
X211907143Y-130387857D01*
X211907143Y-130387857D02*
X211835714Y-130245000D01*
X211835714Y-130245000D02*
X211692857Y-130173571D01*
X211692857Y-130173571D02*
X211407143Y-130173571D01*
X211407143Y-130173571D02*
X211264285Y-130245000D01*
X211907143Y-131102142D02*
X211764285Y-131173571D01*
X211764285Y-131173571D02*
X211407143Y-131173571D01*
X211407143Y-131173571D02*
X211264285Y-131102142D01*
X211264285Y-131102142D02*
X211192857Y-130959285D01*
X211192857Y-130959285D02*
X211192857Y-130816428D01*
X211192857Y-130816428D02*
X211264285Y-130673571D01*
X211264285Y-130673571D02*
X211407143Y-130602142D01*
X211407143Y-130602142D02*
X211764285Y-130602142D01*
X211764285Y-130602142D02*
X211907143Y-130530714D01*
X213264286Y-131102142D02*
X213121428Y-131173571D01*
X213121428Y-131173571D02*
X212835714Y-131173571D01*
X212835714Y-131173571D02*
X212692857Y-131102142D01*
X212692857Y-131102142D02*
X212621428Y-131030714D01*
X212621428Y-131030714D02*
X212550000Y-130887857D01*
X212550000Y-130887857D02*
X212550000Y-130459285D01*
X212550000Y-130459285D02*
X212621428Y-130316428D01*
X212621428Y-130316428D02*
X212692857Y-130245000D01*
X212692857Y-130245000D02*
X212835714Y-130173571D01*
X212835714Y-130173571D02*
X213121428Y-130173571D01*
X213121428Y-130173571D02*
X213264286Y-130245000D01*
X213692857Y-130173571D02*
X214264285Y-130173571D01*
X213907142Y-129673571D02*
X213907142Y-130959285D01*
X213907142Y-130959285D02*
X213978571Y-131102142D01*
X213978571Y-131102142D02*
X214121428Y-131173571D01*
X214121428Y-131173571D02*
X214264285Y-131173571D01*
X214764285Y-131173571D02*
X214764285Y-130173571D01*
X214764285Y-129673571D02*
X214692857Y-129745000D01*
X214692857Y-129745000D02*
X214764285Y-129816428D01*
X214764285Y-129816428D02*
X214835714Y-129745000D01*
X214835714Y-129745000D02*
X214764285Y-129673571D01*
X214764285Y-129673571D02*
X214764285Y-129816428D01*
X216050000Y-131102142D02*
X215907143Y-131173571D01*
X215907143Y-131173571D02*
X215621429Y-131173571D01*
X215621429Y-131173571D02*
X215478571Y-131102142D01*
X215478571Y-131102142D02*
X215407143Y-130959285D01*
X215407143Y-130959285D02*
X215407143Y-130387857D01*
X215407143Y-130387857D02*
X215478571Y-130245000D01*
X215478571Y-130245000D02*
X215621429Y-130173571D01*
X215621429Y-130173571D02*
X215907143Y-130173571D01*
X215907143Y-130173571D02*
X216050000Y-130245000D01*
X216050000Y-130245000D02*
X216121429Y-130387857D01*
X216121429Y-130387857D02*
X216121429Y-130530714D01*
X216121429Y-130530714D02*
X215407143Y-130673571D01*
X117235714Y-112957857D02*
X117735714Y-112957857D01*
X117950000Y-113743571D02*
X117235714Y-113743571D01*
X117235714Y-113743571D02*
X117235714Y-112243571D01*
X117235714Y-112243571D02*
X117950000Y-112243571D01*
X118378572Y-112743571D02*
X118950000Y-112743571D01*
X118592857Y-113743571D02*
X118592857Y-112457857D01*
X118592857Y-112457857D02*
X118664286Y-112315000D01*
X118664286Y-112315000D02*
X118807143Y-112243571D01*
X118807143Y-112243571D02*
X118950000Y-112243571D01*
X120021429Y-113672142D02*
X119878572Y-113743571D01*
X119878572Y-113743571D02*
X119592858Y-113743571D01*
X119592858Y-113743571D02*
X119450000Y-113672142D01*
X119450000Y-113672142D02*
X119378572Y-113529285D01*
X119378572Y-113529285D02*
X119378572Y-112957857D01*
X119378572Y-112957857D02*
X119450000Y-112815000D01*
X119450000Y-112815000D02*
X119592858Y-112743571D01*
X119592858Y-112743571D02*
X119878572Y-112743571D01*
X119878572Y-112743571D02*
X120021429Y-112815000D01*
X120021429Y-112815000D02*
X120092858Y-112957857D01*
X120092858Y-112957857D02*
X120092858Y-113100714D01*
X120092858Y-113100714D02*
X119378572Y-113243571D01*
X121378572Y-113672142D02*
X121235714Y-113743571D01*
X121235714Y-113743571D02*
X120950000Y-113743571D01*
X120950000Y-113743571D02*
X120807143Y-113672142D01*
X120807143Y-113672142D02*
X120735714Y-113600714D01*
X120735714Y-113600714D02*
X120664286Y-113457857D01*
X120664286Y-113457857D02*
X120664286Y-113029285D01*
X120664286Y-113029285D02*
X120735714Y-112886428D01*
X120735714Y-112886428D02*
X120807143Y-112815000D01*
X120807143Y-112815000D02*
X120950000Y-112743571D01*
X120950000Y-112743571D02*
X121235714Y-112743571D01*
X121235714Y-112743571D02*
X121378572Y-112815000D01*
X121807143Y-112743571D02*
X122378571Y-112743571D01*
X122021428Y-112243571D02*
X122021428Y-113529285D01*
X122021428Y-113529285D02*
X122092857Y-113672142D01*
X122092857Y-113672142D02*
X122235714Y-113743571D01*
X122235714Y-113743571D02*
X122378571Y-113743571D01*
X123521429Y-112743571D02*
X123521429Y-113743571D01*
X122878571Y-112743571D02*
X122878571Y-113529285D01*
X122878571Y-113529285D02*
X122950000Y-113672142D01*
X122950000Y-113672142D02*
X123092857Y-113743571D01*
X123092857Y-113743571D02*
X123307143Y-113743571D01*
X123307143Y-113743571D02*
X123450000Y-113672142D01*
X123450000Y-113672142D02*
X123521429Y-113600714D01*
X124450000Y-113743571D02*
X124307143Y-113672142D01*
X124307143Y-113672142D02*
X124235714Y-113529285D01*
X124235714Y-113529285D02*
X124235714Y-112243571D01*
X125921428Y-113743571D02*
X125921428Y-112743571D01*
X125921428Y-113029285D02*
X125992857Y-112886428D01*
X125992857Y-112886428D02*
X126064286Y-112815000D01*
X126064286Y-112815000D02*
X126207143Y-112743571D01*
X126207143Y-112743571D02*
X126350000Y-112743571D01*
X127421428Y-113672142D02*
X127278571Y-113743571D01*
X127278571Y-113743571D02*
X126992857Y-113743571D01*
X126992857Y-113743571D02*
X126849999Y-113672142D01*
X126849999Y-113672142D02*
X126778571Y-113529285D01*
X126778571Y-113529285D02*
X126778571Y-112957857D01*
X126778571Y-112957857D02*
X126849999Y-112815000D01*
X126849999Y-112815000D02*
X126992857Y-112743571D01*
X126992857Y-112743571D02*
X127278571Y-112743571D01*
X127278571Y-112743571D02*
X127421428Y-112815000D01*
X127421428Y-112815000D02*
X127492857Y-112957857D01*
X127492857Y-112957857D02*
X127492857Y-113100714D01*
X127492857Y-113100714D02*
X126778571Y-113243571D01*
X128778571Y-113743571D02*
X128778571Y-112957857D01*
X128778571Y-112957857D02*
X128707142Y-112815000D01*
X128707142Y-112815000D02*
X128564285Y-112743571D01*
X128564285Y-112743571D02*
X128278571Y-112743571D01*
X128278571Y-112743571D02*
X128135713Y-112815000D01*
X128778571Y-113672142D02*
X128635713Y-113743571D01*
X128635713Y-113743571D02*
X128278571Y-113743571D01*
X128278571Y-113743571D02*
X128135713Y-113672142D01*
X128135713Y-113672142D02*
X128064285Y-113529285D01*
X128064285Y-113529285D02*
X128064285Y-113386428D01*
X128064285Y-113386428D02*
X128135713Y-113243571D01*
X128135713Y-113243571D02*
X128278571Y-113172142D01*
X128278571Y-113172142D02*
X128635713Y-113172142D01*
X128635713Y-113172142D02*
X128778571Y-113100714D01*
X130135714Y-113672142D02*
X129992856Y-113743571D01*
X129992856Y-113743571D02*
X129707142Y-113743571D01*
X129707142Y-113743571D02*
X129564285Y-113672142D01*
X129564285Y-113672142D02*
X129492856Y-113600714D01*
X129492856Y-113600714D02*
X129421428Y-113457857D01*
X129421428Y-113457857D02*
X129421428Y-113029285D01*
X129421428Y-113029285D02*
X129492856Y-112886428D01*
X129492856Y-112886428D02*
X129564285Y-112815000D01*
X129564285Y-112815000D02*
X129707142Y-112743571D01*
X129707142Y-112743571D02*
X129992856Y-112743571D01*
X129992856Y-112743571D02*
X130135714Y-112815000D01*
X130564285Y-112743571D02*
X131135713Y-112743571D01*
X130778570Y-112243571D02*
X130778570Y-113529285D01*
X130778570Y-113529285D02*
X130849999Y-113672142D01*
X130849999Y-113672142D02*
X130992856Y-113743571D01*
X130992856Y-113743571D02*
X131135713Y-113743571D01*
X131635713Y-113743571D02*
X131635713Y-112743571D01*
X131635713Y-112243571D02*
X131564285Y-112315000D01*
X131564285Y-112315000D02*
X131635713Y-112386428D01*
X131635713Y-112386428D02*
X131707142Y-112315000D01*
X131707142Y-112315000D02*
X131635713Y-112243571D01*
X131635713Y-112243571D02*
X131635713Y-112386428D01*
X132921428Y-113672142D02*
X132778571Y-113743571D01*
X132778571Y-113743571D02*
X132492857Y-113743571D01*
X132492857Y-113743571D02*
X132349999Y-113672142D01*
X132349999Y-113672142D02*
X132278571Y-113529285D01*
X132278571Y-113529285D02*
X132278571Y-112957857D01*
X132278571Y-112957857D02*
X132349999Y-112815000D01*
X132349999Y-112815000D02*
X132492857Y-112743571D01*
X132492857Y-112743571D02*
X132778571Y-112743571D01*
X132778571Y-112743571D02*
X132921428Y-112815000D01*
X132921428Y-112815000D02*
X132992857Y-112957857D01*
X132992857Y-112957857D02*
X132992857Y-113100714D01*
X132992857Y-113100714D02*
X132278571Y-113243571D01*
X133635713Y-113743571D02*
X133635713Y-112743571D01*
X133635713Y-112243571D02*
X133564285Y-112315000D01*
X133564285Y-112315000D02*
X133635713Y-112386428D01*
X133635713Y-112386428D02*
X133707142Y-112315000D01*
X133707142Y-112315000D02*
X133635713Y-112243571D01*
X133635713Y-112243571D02*
X133635713Y-112386428D01*
X135249999Y-112743571D02*
X135249999Y-113743571D01*
X135249999Y-112886428D02*
X135321428Y-112815000D01*
X135321428Y-112815000D02*
X135464285Y-112743571D01*
X135464285Y-112743571D02*
X135678571Y-112743571D01*
X135678571Y-112743571D02*
X135821428Y-112815000D01*
X135821428Y-112815000D02*
X135892857Y-112957857D01*
X135892857Y-112957857D02*
X135892857Y-113743571D01*
X137178571Y-113672142D02*
X137035714Y-113743571D01*
X137035714Y-113743571D02*
X136750000Y-113743571D01*
X136750000Y-113743571D02*
X136607142Y-113672142D01*
X136607142Y-113672142D02*
X136535714Y-113529285D01*
X136535714Y-113529285D02*
X136535714Y-112957857D01*
X136535714Y-112957857D02*
X136607142Y-112815000D01*
X136607142Y-112815000D02*
X136750000Y-112743571D01*
X136750000Y-112743571D02*
X137035714Y-112743571D01*
X137035714Y-112743571D02*
X137178571Y-112815000D01*
X137178571Y-112815000D02*
X137250000Y-112957857D01*
X137250000Y-112957857D02*
X137250000Y-113100714D01*
X137250000Y-113100714D02*
X136535714Y-113243571D01*
X138535714Y-112743571D02*
X138535714Y-113957857D01*
X138535714Y-113957857D02*
X138464285Y-114100714D01*
X138464285Y-114100714D02*
X138392856Y-114172142D01*
X138392856Y-114172142D02*
X138249999Y-114243571D01*
X138249999Y-114243571D02*
X138035714Y-114243571D01*
X138035714Y-114243571D02*
X137892856Y-114172142D01*
X138535714Y-113672142D02*
X138392856Y-113743571D01*
X138392856Y-113743571D02*
X138107142Y-113743571D01*
X138107142Y-113743571D02*
X137964285Y-113672142D01*
X137964285Y-113672142D02*
X137892856Y-113600714D01*
X137892856Y-113600714D02*
X137821428Y-113457857D01*
X137821428Y-113457857D02*
X137821428Y-113029285D01*
X137821428Y-113029285D02*
X137892856Y-112886428D01*
X137892856Y-112886428D02*
X137964285Y-112815000D01*
X137964285Y-112815000D02*
X138107142Y-112743571D01*
X138107142Y-112743571D02*
X138392856Y-112743571D01*
X138392856Y-112743571D02*
X138535714Y-112815000D01*
X139892857Y-113743571D02*
X139892857Y-112957857D01*
X139892857Y-112957857D02*
X139821428Y-112815000D01*
X139821428Y-112815000D02*
X139678571Y-112743571D01*
X139678571Y-112743571D02*
X139392857Y-112743571D01*
X139392857Y-112743571D02*
X139249999Y-112815000D01*
X139892857Y-113672142D02*
X139749999Y-113743571D01*
X139749999Y-113743571D02*
X139392857Y-113743571D01*
X139392857Y-113743571D02*
X139249999Y-113672142D01*
X139249999Y-113672142D02*
X139178571Y-113529285D01*
X139178571Y-113529285D02*
X139178571Y-113386428D01*
X139178571Y-113386428D02*
X139249999Y-113243571D01*
X139249999Y-113243571D02*
X139392857Y-113172142D01*
X139392857Y-113172142D02*
X139749999Y-113172142D01*
X139749999Y-113172142D02*
X139892857Y-113100714D01*
X140392857Y-112743571D02*
X140964285Y-112743571D01*
X140607142Y-112243571D02*
X140607142Y-113529285D01*
X140607142Y-113529285D02*
X140678571Y-113672142D01*
X140678571Y-113672142D02*
X140821428Y-113743571D01*
X140821428Y-113743571D02*
X140964285Y-113743571D01*
X141464285Y-113743571D02*
X141464285Y-112743571D01*
X141464285Y-112243571D02*
X141392857Y-112315000D01*
X141392857Y-112315000D02*
X141464285Y-112386428D01*
X141464285Y-112386428D02*
X141535714Y-112315000D01*
X141535714Y-112315000D02*
X141464285Y-112243571D01*
X141464285Y-112243571D02*
X141464285Y-112386428D01*
X142035714Y-112743571D02*
X142392857Y-113743571D01*
X142392857Y-113743571D02*
X142750000Y-112743571D01*
X143892857Y-113672142D02*
X143750000Y-113743571D01*
X143750000Y-113743571D02*
X143464286Y-113743571D01*
X143464286Y-113743571D02*
X143321428Y-113672142D01*
X143321428Y-113672142D02*
X143250000Y-113529285D01*
X143250000Y-113529285D02*
X143250000Y-112957857D01*
X143250000Y-112957857D02*
X143321428Y-112815000D01*
X143321428Y-112815000D02*
X143464286Y-112743571D01*
X143464286Y-112743571D02*
X143750000Y-112743571D01*
X143750000Y-112743571D02*
X143892857Y-112815000D01*
X143892857Y-112815000D02*
X143964286Y-112957857D01*
X143964286Y-112957857D02*
X143964286Y-113100714D01*
X143964286Y-113100714D02*
X143250000Y-113243571D01*
X146150000Y-113743571D02*
X146150000Y-112957857D01*
X146150000Y-112957857D02*
X146078571Y-112815000D01*
X146078571Y-112815000D02*
X145935714Y-112743571D01*
X145935714Y-112743571D02*
X145650000Y-112743571D01*
X145650000Y-112743571D02*
X145507142Y-112815000D01*
X146150000Y-113672142D02*
X146007142Y-113743571D01*
X146007142Y-113743571D02*
X145650000Y-113743571D01*
X145650000Y-113743571D02*
X145507142Y-113672142D01*
X145507142Y-113672142D02*
X145435714Y-113529285D01*
X145435714Y-113529285D02*
X145435714Y-113386428D01*
X145435714Y-113386428D02*
X145507142Y-113243571D01*
X145507142Y-113243571D02*
X145650000Y-113172142D01*
X145650000Y-113172142D02*
X146007142Y-113172142D01*
X146007142Y-113172142D02*
X146150000Y-113100714D01*
X146792857Y-113672142D02*
X146935714Y-113743571D01*
X146935714Y-113743571D02*
X147221428Y-113743571D01*
X147221428Y-113743571D02*
X147364285Y-113672142D01*
X147364285Y-113672142D02*
X147435714Y-113529285D01*
X147435714Y-113529285D02*
X147435714Y-113457857D01*
X147435714Y-113457857D02*
X147364285Y-113315000D01*
X147364285Y-113315000D02*
X147221428Y-113243571D01*
X147221428Y-113243571D02*
X147007143Y-113243571D01*
X147007143Y-113243571D02*
X146864285Y-113172142D01*
X146864285Y-113172142D02*
X146792857Y-113029285D01*
X146792857Y-113029285D02*
X146792857Y-112957857D01*
X146792857Y-112957857D02*
X146864285Y-112815000D01*
X146864285Y-112815000D02*
X147007143Y-112743571D01*
X147007143Y-112743571D02*
X147221428Y-112743571D01*
X147221428Y-112743571D02*
X147364285Y-112815000D01*
X148721429Y-112743571D02*
X148721429Y-113743571D01*
X148078571Y-112743571D02*
X148078571Y-113529285D01*
X148078571Y-113529285D02*
X148150000Y-113672142D01*
X148150000Y-113672142D02*
X148292857Y-113743571D01*
X148292857Y-113743571D02*
X148507143Y-113743571D01*
X148507143Y-113743571D02*
X148650000Y-113672142D01*
X148650000Y-113672142D02*
X148721429Y-113600714D01*
X149435714Y-112743571D02*
X149435714Y-114243571D01*
X149435714Y-112815000D02*
X149578572Y-112743571D01*
X149578572Y-112743571D02*
X149864286Y-112743571D01*
X149864286Y-112743571D02*
X150007143Y-112815000D01*
X150007143Y-112815000D02*
X150078572Y-112886428D01*
X150078572Y-112886428D02*
X150150000Y-113029285D01*
X150150000Y-113029285D02*
X150150000Y-113457857D01*
X150150000Y-113457857D02*
X150078572Y-113600714D01*
X150078572Y-113600714D02*
X150007143Y-113672142D01*
X150007143Y-113672142D02*
X149864286Y-113743571D01*
X149864286Y-113743571D02*
X149578572Y-113743571D01*
X149578572Y-113743571D02*
X149435714Y-113672142D01*
X150792857Y-113743571D02*
X150792857Y-112743571D01*
X150792857Y-113029285D02*
X150864286Y-112886428D01*
X150864286Y-112886428D02*
X150935715Y-112815000D01*
X150935715Y-112815000D02*
X151078572Y-112743571D01*
X151078572Y-112743571D02*
X151221429Y-112743571D01*
X152364286Y-113743571D02*
X152364286Y-112957857D01*
X152364286Y-112957857D02*
X152292857Y-112815000D01*
X152292857Y-112815000D02*
X152150000Y-112743571D01*
X152150000Y-112743571D02*
X151864286Y-112743571D01*
X151864286Y-112743571D02*
X151721428Y-112815000D01*
X152364286Y-113672142D02*
X152221428Y-113743571D01*
X152221428Y-113743571D02*
X151864286Y-113743571D01*
X151864286Y-113743571D02*
X151721428Y-113672142D01*
X151721428Y-113672142D02*
X151650000Y-113529285D01*
X151650000Y-113529285D02*
X151650000Y-113386428D01*
X151650000Y-113386428D02*
X151721428Y-113243571D01*
X151721428Y-113243571D02*
X151864286Y-113172142D01*
X151864286Y-113172142D02*
X152221428Y-113172142D01*
X152221428Y-113172142D02*
X152364286Y-113100714D01*
X154621429Y-113672142D02*
X154478571Y-113743571D01*
X154478571Y-113743571D02*
X154192857Y-113743571D01*
X154192857Y-113743571D02*
X154050000Y-113672142D01*
X154050000Y-113672142D02*
X153978571Y-113600714D01*
X153978571Y-113600714D02*
X153907143Y-113457857D01*
X153907143Y-113457857D02*
X153907143Y-113029285D01*
X153907143Y-113029285D02*
X153978571Y-112886428D01*
X153978571Y-112886428D02*
X154050000Y-112815000D01*
X154050000Y-112815000D02*
X154192857Y-112743571D01*
X154192857Y-112743571D02*
X154478571Y-112743571D01*
X154478571Y-112743571D02*
X154621429Y-112815000D01*
X155907143Y-113743571D02*
X155907143Y-112957857D01*
X155907143Y-112957857D02*
X155835714Y-112815000D01*
X155835714Y-112815000D02*
X155692857Y-112743571D01*
X155692857Y-112743571D02*
X155407143Y-112743571D01*
X155407143Y-112743571D02*
X155264285Y-112815000D01*
X155907143Y-113672142D02*
X155764285Y-113743571D01*
X155764285Y-113743571D02*
X155407143Y-113743571D01*
X155407143Y-113743571D02*
X155264285Y-113672142D01*
X155264285Y-113672142D02*
X155192857Y-113529285D01*
X155192857Y-113529285D02*
X155192857Y-113386428D01*
X155192857Y-113386428D02*
X155264285Y-113243571D01*
X155264285Y-113243571D02*
X155407143Y-113172142D01*
X155407143Y-113172142D02*
X155764285Y-113172142D01*
X155764285Y-113172142D02*
X155907143Y-113100714D01*
X156621428Y-113743571D02*
X156621428Y-112743571D01*
X156621428Y-113029285D02*
X156692857Y-112886428D01*
X156692857Y-112886428D02*
X156764286Y-112815000D01*
X156764286Y-112815000D02*
X156907143Y-112743571D01*
X156907143Y-112743571D02*
X157050000Y-112743571D01*
X158192857Y-113743571D02*
X158192857Y-112957857D01*
X158192857Y-112957857D02*
X158121428Y-112815000D01*
X158121428Y-112815000D02*
X157978571Y-112743571D01*
X157978571Y-112743571D02*
X157692857Y-112743571D01*
X157692857Y-112743571D02*
X157549999Y-112815000D01*
X158192857Y-113672142D02*
X158049999Y-113743571D01*
X158049999Y-113743571D02*
X157692857Y-113743571D01*
X157692857Y-113743571D02*
X157549999Y-113672142D01*
X157549999Y-113672142D02*
X157478571Y-113529285D01*
X157478571Y-113529285D02*
X157478571Y-113386428D01*
X157478571Y-113386428D02*
X157549999Y-113243571D01*
X157549999Y-113243571D02*
X157692857Y-113172142D01*
X157692857Y-113172142D02*
X158049999Y-113172142D01*
X158049999Y-113172142D02*
X158192857Y-113100714D01*
X159550000Y-113672142D02*
X159407142Y-113743571D01*
X159407142Y-113743571D02*
X159121428Y-113743571D01*
X159121428Y-113743571D02*
X158978571Y-113672142D01*
X158978571Y-113672142D02*
X158907142Y-113600714D01*
X158907142Y-113600714D02*
X158835714Y-113457857D01*
X158835714Y-113457857D02*
X158835714Y-113029285D01*
X158835714Y-113029285D02*
X158907142Y-112886428D01*
X158907142Y-112886428D02*
X158978571Y-112815000D01*
X158978571Y-112815000D02*
X159121428Y-112743571D01*
X159121428Y-112743571D02*
X159407142Y-112743571D01*
X159407142Y-112743571D02*
X159550000Y-112815000D01*
X159978571Y-112743571D02*
X160549999Y-112743571D01*
X160192856Y-112243571D02*
X160192856Y-113529285D01*
X160192856Y-113529285D02*
X160264285Y-113672142D01*
X160264285Y-113672142D02*
X160407142Y-113743571D01*
X160407142Y-113743571D02*
X160549999Y-113743571D01*
X161621428Y-113672142D02*
X161478571Y-113743571D01*
X161478571Y-113743571D02*
X161192857Y-113743571D01*
X161192857Y-113743571D02*
X161049999Y-113672142D01*
X161049999Y-113672142D02*
X160978571Y-113529285D01*
X160978571Y-113529285D02*
X160978571Y-112957857D01*
X160978571Y-112957857D02*
X161049999Y-112815000D01*
X161049999Y-112815000D02*
X161192857Y-112743571D01*
X161192857Y-112743571D02*
X161478571Y-112743571D01*
X161478571Y-112743571D02*
X161621428Y-112815000D01*
X161621428Y-112815000D02*
X161692857Y-112957857D01*
X161692857Y-112957857D02*
X161692857Y-113100714D01*
X161692857Y-113100714D02*
X160978571Y-113243571D01*
X162335713Y-113743571D02*
X162335713Y-112743571D01*
X162335713Y-113029285D02*
X162407142Y-112886428D01*
X162407142Y-112886428D02*
X162478571Y-112815000D01*
X162478571Y-112815000D02*
X162621428Y-112743571D01*
X162621428Y-112743571D02*
X162764285Y-112743571D01*
X163264284Y-113743571D02*
X163264284Y-112743571D01*
X163264284Y-112243571D02*
X163192856Y-112315000D01*
X163192856Y-112315000D02*
X163264284Y-112386428D01*
X163264284Y-112386428D02*
X163335713Y-112315000D01*
X163335713Y-112315000D02*
X163264284Y-112243571D01*
X163264284Y-112243571D02*
X163264284Y-112386428D01*
X163907142Y-113672142D02*
X164049999Y-113743571D01*
X164049999Y-113743571D02*
X164335713Y-113743571D01*
X164335713Y-113743571D02*
X164478570Y-113672142D01*
X164478570Y-113672142D02*
X164549999Y-113529285D01*
X164549999Y-113529285D02*
X164549999Y-113457857D01*
X164549999Y-113457857D02*
X164478570Y-113315000D01*
X164478570Y-113315000D02*
X164335713Y-113243571D01*
X164335713Y-113243571D02*
X164121428Y-113243571D01*
X164121428Y-113243571D02*
X163978570Y-113172142D01*
X163978570Y-113172142D02*
X163907142Y-113029285D01*
X163907142Y-113029285D02*
X163907142Y-112957857D01*
X163907142Y-112957857D02*
X163978570Y-112815000D01*
X163978570Y-112815000D02*
X164121428Y-112743571D01*
X164121428Y-112743571D02*
X164335713Y-112743571D01*
X164335713Y-112743571D02*
X164478570Y-112815000D01*
X164978571Y-112743571D02*
X165549999Y-112743571D01*
X165192856Y-112243571D02*
X165192856Y-113529285D01*
X165192856Y-113529285D02*
X165264285Y-113672142D01*
X165264285Y-113672142D02*
X165407142Y-113743571D01*
X165407142Y-113743571D02*
X165549999Y-113743571D01*
X166049999Y-113743571D02*
X166049999Y-112743571D01*
X166049999Y-112243571D02*
X165978571Y-112315000D01*
X165978571Y-112315000D02*
X166049999Y-112386428D01*
X166049999Y-112386428D02*
X166121428Y-112315000D01*
X166121428Y-112315000D02*
X166049999Y-112243571D01*
X166049999Y-112243571D02*
X166049999Y-112386428D01*
X167407143Y-113672142D02*
X167264285Y-113743571D01*
X167264285Y-113743571D02*
X166978571Y-113743571D01*
X166978571Y-113743571D02*
X166835714Y-113672142D01*
X166835714Y-113672142D02*
X166764285Y-113600714D01*
X166764285Y-113600714D02*
X166692857Y-113457857D01*
X166692857Y-113457857D02*
X166692857Y-113029285D01*
X166692857Y-113029285D02*
X166764285Y-112886428D01*
X166764285Y-112886428D02*
X166835714Y-112815000D01*
X166835714Y-112815000D02*
X166978571Y-112743571D01*
X166978571Y-112743571D02*
X167264285Y-112743571D01*
X167264285Y-112743571D02*
X167407143Y-112815000D01*
X168049999Y-113743571D02*
X168049999Y-112743571D01*
X168049999Y-112243571D02*
X167978571Y-112315000D01*
X167978571Y-112315000D02*
X168049999Y-112386428D01*
X168049999Y-112386428D02*
X168121428Y-112315000D01*
X168121428Y-112315000D02*
X168049999Y-112243571D01*
X168049999Y-112243571D02*
X168049999Y-112386428D01*
X168764285Y-113743571D02*
X168764285Y-112743571D01*
X168764285Y-112243571D02*
X168692857Y-112315000D01*
X168692857Y-112315000D02*
X168764285Y-112386428D01*
X168764285Y-112386428D02*
X168835714Y-112315000D01*
X168835714Y-112315000D02*
X168764285Y-112243571D01*
X168764285Y-112243571D02*
X168764285Y-112386428D01*
X127028572Y-116173571D02*
X127028572Y-114673571D01*
X127028572Y-116102142D02*
X126885714Y-116173571D01*
X126885714Y-116173571D02*
X126600000Y-116173571D01*
X126600000Y-116173571D02*
X126457143Y-116102142D01*
X126457143Y-116102142D02*
X126385714Y-116030714D01*
X126385714Y-116030714D02*
X126314286Y-115887857D01*
X126314286Y-115887857D02*
X126314286Y-115459285D01*
X126314286Y-115459285D02*
X126385714Y-115316428D01*
X126385714Y-115316428D02*
X126457143Y-115245000D01*
X126457143Y-115245000D02*
X126600000Y-115173571D01*
X126600000Y-115173571D02*
X126885714Y-115173571D01*
X126885714Y-115173571D02*
X127028572Y-115245000D01*
X128314286Y-116102142D02*
X128171429Y-116173571D01*
X128171429Y-116173571D02*
X127885715Y-116173571D01*
X127885715Y-116173571D02*
X127742857Y-116102142D01*
X127742857Y-116102142D02*
X127671429Y-115959285D01*
X127671429Y-115959285D02*
X127671429Y-115387857D01*
X127671429Y-115387857D02*
X127742857Y-115245000D01*
X127742857Y-115245000D02*
X127885715Y-115173571D01*
X127885715Y-115173571D02*
X128171429Y-115173571D01*
X128171429Y-115173571D02*
X128314286Y-115245000D01*
X128314286Y-115245000D02*
X128385715Y-115387857D01*
X128385715Y-115387857D02*
X128385715Y-115530714D01*
X128385715Y-115530714D02*
X127671429Y-115673571D01*
X129714286Y-115173571D02*
X130285714Y-115173571D01*
X129928571Y-116173571D02*
X129928571Y-114887857D01*
X129928571Y-114887857D02*
X130000000Y-114745000D01*
X130000000Y-114745000D02*
X130142857Y-114673571D01*
X130142857Y-114673571D02*
X130285714Y-114673571D01*
X130785714Y-116173571D02*
X130785714Y-115173571D01*
X130785714Y-115459285D02*
X130857143Y-115316428D01*
X130857143Y-115316428D02*
X130928572Y-115245000D01*
X130928572Y-115245000D02*
X131071429Y-115173571D01*
X131071429Y-115173571D02*
X131214286Y-115173571D01*
X132285714Y-116102142D02*
X132142857Y-116173571D01*
X132142857Y-116173571D02*
X131857143Y-116173571D01*
X131857143Y-116173571D02*
X131714285Y-116102142D01*
X131714285Y-116102142D02*
X131642857Y-115959285D01*
X131642857Y-115959285D02*
X131642857Y-115387857D01*
X131642857Y-115387857D02*
X131714285Y-115245000D01*
X131714285Y-115245000D02*
X131857143Y-115173571D01*
X131857143Y-115173571D02*
X132142857Y-115173571D01*
X132142857Y-115173571D02*
X132285714Y-115245000D01*
X132285714Y-115245000D02*
X132357143Y-115387857D01*
X132357143Y-115387857D02*
X132357143Y-115530714D01*
X132357143Y-115530714D02*
X131642857Y-115673571D01*
X133642857Y-116102142D02*
X133499999Y-116173571D01*
X133499999Y-116173571D02*
X133214285Y-116173571D01*
X133214285Y-116173571D02*
X133071428Y-116102142D01*
X133071428Y-116102142D02*
X132999999Y-116030714D01*
X132999999Y-116030714D02*
X132928571Y-115887857D01*
X132928571Y-115887857D02*
X132928571Y-115459285D01*
X132928571Y-115459285D02*
X132999999Y-115316428D01*
X132999999Y-115316428D02*
X133071428Y-115245000D01*
X133071428Y-115245000D02*
X133214285Y-115173571D01*
X133214285Y-115173571D02*
X133499999Y-115173571D01*
X133499999Y-115173571D02*
X133642857Y-115245000D01*
X134142856Y-115173571D02*
X134499999Y-116173571D01*
X134499999Y-116173571D02*
X134857142Y-115173571D01*
X135999999Y-116102142D02*
X135857142Y-116173571D01*
X135857142Y-116173571D02*
X135571428Y-116173571D01*
X135571428Y-116173571D02*
X135428570Y-116102142D01*
X135428570Y-116102142D02*
X135357142Y-115959285D01*
X135357142Y-115959285D02*
X135357142Y-115387857D01*
X135357142Y-115387857D02*
X135428570Y-115245000D01*
X135428570Y-115245000D02*
X135571428Y-115173571D01*
X135571428Y-115173571D02*
X135857142Y-115173571D01*
X135857142Y-115173571D02*
X135999999Y-115245000D01*
X135999999Y-115245000D02*
X136071428Y-115387857D01*
X136071428Y-115387857D02*
X136071428Y-115530714D01*
X136071428Y-115530714D02*
X135357142Y-115673571D01*
X136714284Y-115173571D02*
X136714284Y-116173571D01*
X136714284Y-115316428D02*
X136785713Y-115245000D01*
X136785713Y-115245000D02*
X136928570Y-115173571D01*
X136928570Y-115173571D02*
X137142856Y-115173571D01*
X137142856Y-115173571D02*
X137285713Y-115245000D01*
X137285713Y-115245000D02*
X137357142Y-115387857D01*
X137357142Y-115387857D02*
X137357142Y-116173571D01*
X137857142Y-115173571D02*
X138428570Y-115173571D01*
X138071427Y-114673571D02*
X138071427Y-115959285D01*
X138071427Y-115959285D02*
X138142856Y-116102142D01*
X138142856Y-116102142D02*
X138285713Y-116173571D01*
X138285713Y-116173571D02*
X138428570Y-116173571D01*
X139571428Y-116173571D02*
X139571428Y-115387857D01*
X139571428Y-115387857D02*
X139499999Y-115245000D01*
X139499999Y-115245000D02*
X139357142Y-115173571D01*
X139357142Y-115173571D02*
X139071428Y-115173571D01*
X139071428Y-115173571D02*
X138928570Y-115245000D01*
X139571428Y-116102142D02*
X139428570Y-116173571D01*
X139428570Y-116173571D02*
X139071428Y-116173571D01*
X139071428Y-116173571D02*
X138928570Y-116102142D01*
X138928570Y-116102142D02*
X138857142Y-115959285D01*
X138857142Y-115959285D02*
X138857142Y-115816428D01*
X138857142Y-115816428D02*
X138928570Y-115673571D01*
X138928570Y-115673571D02*
X139071428Y-115602142D01*
X139071428Y-115602142D02*
X139428570Y-115602142D01*
X139428570Y-115602142D02*
X139571428Y-115530714D01*
X141828571Y-116173571D02*
X141828571Y-115387857D01*
X141828571Y-115387857D02*
X141757142Y-115245000D01*
X141757142Y-115245000D02*
X141614285Y-115173571D01*
X141614285Y-115173571D02*
X141328571Y-115173571D01*
X141328571Y-115173571D02*
X141185713Y-115245000D01*
X141828571Y-116102142D02*
X141685713Y-116173571D01*
X141685713Y-116173571D02*
X141328571Y-116173571D01*
X141328571Y-116173571D02*
X141185713Y-116102142D01*
X141185713Y-116102142D02*
X141114285Y-115959285D01*
X141114285Y-115959285D02*
X141114285Y-115816428D01*
X141114285Y-115816428D02*
X141185713Y-115673571D01*
X141185713Y-115673571D02*
X141328571Y-115602142D01*
X141328571Y-115602142D02*
X141685713Y-115602142D01*
X141685713Y-115602142D02*
X141828571Y-115530714D01*
X144085714Y-116173571D02*
X144085714Y-115387857D01*
X144085714Y-115387857D02*
X144014285Y-115245000D01*
X144014285Y-115245000D02*
X143871428Y-115173571D01*
X143871428Y-115173571D02*
X143585714Y-115173571D01*
X143585714Y-115173571D02*
X143442856Y-115245000D01*
X144085714Y-116102142D02*
X143942856Y-116173571D01*
X143942856Y-116173571D02*
X143585714Y-116173571D01*
X143585714Y-116173571D02*
X143442856Y-116102142D01*
X143442856Y-116102142D02*
X143371428Y-115959285D01*
X143371428Y-115959285D02*
X143371428Y-115816428D01*
X143371428Y-115816428D02*
X143442856Y-115673571D01*
X143442856Y-115673571D02*
X143585714Y-115602142D01*
X143585714Y-115602142D02*
X143942856Y-115602142D01*
X143942856Y-115602142D02*
X144085714Y-115530714D01*
X144799999Y-116173571D02*
X144799999Y-115173571D01*
X144799999Y-115316428D02*
X144871428Y-115245000D01*
X144871428Y-115245000D02*
X145014285Y-115173571D01*
X145014285Y-115173571D02*
X145228571Y-115173571D01*
X145228571Y-115173571D02*
X145371428Y-115245000D01*
X145371428Y-115245000D02*
X145442857Y-115387857D01*
X145442857Y-115387857D02*
X145442857Y-116173571D01*
X145442857Y-115387857D02*
X145514285Y-115245000D01*
X145514285Y-115245000D02*
X145657142Y-115173571D01*
X145657142Y-115173571D02*
X145871428Y-115173571D01*
X145871428Y-115173571D02*
X146014285Y-115245000D01*
X146014285Y-115245000D02*
X146085714Y-115387857D01*
X146085714Y-115387857D02*
X146085714Y-116173571D01*
X146799999Y-115173571D02*
X146799999Y-116673571D01*
X146799999Y-115245000D02*
X146942857Y-115173571D01*
X146942857Y-115173571D02*
X147228571Y-115173571D01*
X147228571Y-115173571D02*
X147371428Y-115245000D01*
X147371428Y-115245000D02*
X147442857Y-115316428D01*
X147442857Y-115316428D02*
X147514285Y-115459285D01*
X147514285Y-115459285D02*
X147514285Y-115887857D01*
X147514285Y-115887857D02*
X147442857Y-116030714D01*
X147442857Y-116030714D02*
X147371428Y-116102142D01*
X147371428Y-116102142D02*
X147228571Y-116173571D01*
X147228571Y-116173571D02*
X146942857Y-116173571D01*
X146942857Y-116173571D02*
X146799999Y-116102142D01*
X148371428Y-116173571D02*
X148228571Y-116102142D01*
X148228571Y-116102142D02*
X148157142Y-115959285D01*
X148157142Y-115959285D02*
X148157142Y-114673571D01*
X148942856Y-116173571D02*
X148942856Y-115173571D01*
X148942856Y-114673571D02*
X148871428Y-114745000D01*
X148871428Y-114745000D02*
X148942856Y-114816428D01*
X148942856Y-114816428D02*
X149014285Y-114745000D01*
X149014285Y-114745000D02*
X148942856Y-114673571D01*
X148942856Y-114673571D02*
X148942856Y-114816428D01*
X149442857Y-115173571D02*
X150014285Y-115173571D01*
X149657142Y-116173571D02*
X149657142Y-114887857D01*
X149657142Y-114887857D02*
X149728571Y-114745000D01*
X149728571Y-114745000D02*
X149871428Y-114673571D01*
X149871428Y-114673571D02*
X150014285Y-114673571D01*
X150514285Y-116173571D02*
X150514285Y-115173571D01*
X150514285Y-114673571D02*
X150442857Y-114745000D01*
X150442857Y-114745000D02*
X150514285Y-114816428D01*
X150514285Y-114816428D02*
X150585714Y-114745000D01*
X150585714Y-114745000D02*
X150514285Y-114673571D01*
X150514285Y-114673571D02*
X150514285Y-114816428D01*
X151871429Y-116102142D02*
X151728571Y-116173571D01*
X151728571Y-116173571D02*
X151442857Y-116173571D01*
X151442857Y-116173571D02*
X151300000Y-116102142D01*
X151300000Y-116102142D02*
X151228571Y-116030714D01*
X151228571Y-116030714D02*
X151157143Y-115887857D01*
X151157143Y-115887857D02*
X151157143Y-115459285D01*
X151157143Y-115459285D02*
X151228571Y-115316428D01*
X151228571Y-115316428D02*
X151300000Y-115245000D01*
X151300000Y-115245000D02*
X151442857Y-115173571D01*
X151442857Y-115173571D02*
X151728571Y-115173571D01*
X151728571Y-115173571D02*
X151871429Y-115245000D01*
X153157143Y-116173571D02*
X153157143Y-115387857D01*
X153157143Y-115387857D02*
X153085714Y-115245000D01*
X153085714Y-115245000D02*
X152942857Y-115173571D01*
X152942857Y-115173571D02*
X152657143Y-115173571D01*
X152657143Y-115173571D02*
X152514285Y-115245000D01*
X153157143Y-116102142D02*
X153014285Y-116173571D01*
X153014285Y-116173571D02*
X152657143Y-116173571D01*
X152657143Y-116173571D02*
X152514285Y-116102142D01*
X152514285Y-116102142D02*
X152442857Y-115959285D01*
X152442857Y-115959285D02*
X152442857Y-115816428D01*
X152442857Y-115816428D02*
X152514285Y-115673571D01*
X152514285Y-115673571D02*
X152657143Y-115602142D01*
X152657143Y-115602142D02*
X153014285Y-115602142D01*
X153014285Y-115602142D02*
X153157143Y-115530714D01*
X153657143Y-115173571D02*
X154228571Y-115173571D01*
X153871428Y-114673571D02*
X153871428Y-115959285D01*
X153871428Y-115959285D02*
X153942857Y-116102142D01*
X153942857Y-116102142D02*
X154085714Y-116173571D01*
X154085714Y-116173571D02*
X154228571Y-116173571D01*
X154942857Y-116173571D02*
X154800000Y-116102142D01*
X154800000Y-116102142D02*
X154728571Y-116030714D01*
X154728571Y-116030714D02*
X154657143Y-115887857D01*
X154657143Y-115887857D02*
X154657143Y-115459285D01*
X154657143Y-115459285D02*
X154728571Y-115316428D01*
X154728571Y-115316428D02*
X154800000Y-115245000D01*
X154800000Y-115245000D02*
X154942857Y-115173571D01*
X154942857Y-115173571D02*
X155157143Y-115173571D01*
X155157143Y-115173571D02*
X155300000Y-115245000D01*
X155300000Y-115245000D02*
X155371429Y-115316428D01*
X155371429Y-115316428D02*
X155442857Y-115459285D01*
X155442857Y-115459285D02*
X155442857Y-115887857D01*
X155442857Y-115887857D02*
X155371429Y-116030714D01*
X155371429Y-116030714D02*
X155300000Y-116102142D01*
X155300000Y-116102142D02*
X155157143Y-116173571D01*
X155157143Y-116173571D02*
X154942857Y-116173571D01*
X156085714Y-116173571D02*
X156085714Y-115173571D01*
X156085714Y-115459285D02*
X156157143Y-115316428D01*
X156157143Y-115316428D02*
X156228572Y-115245000D01*
X156228572Y-115245000D02*
X156371429Y-115173571D01*
X156371429Y-115173571D02*
X156514286Y-115173571D01*
X157657143Y-115173571D02*
X157657143Y-116173571D01*
X157014285Y-115173571D02*
X157014285Y-115959285D01*
X157014285Y-115959285D02*
X157085714Y-116102142D01*
X157085714Y-116102142D02*
X157228571Y-116173571D01*
X157228571Y-116173571D02*
X157442857Y-116173571D01*
X157442857Y-116173571D02*
X157585714Y-116102142D01*
X157585714Y-116102142D02*
X157657143Y-116030714D01*
X158585714Y-116173571D02*
X158442857Y-116102142D01*
X158442857Y-116102142D02*
X158371428Y-115959285D01*
X158371428Y-115959285D02*
X158371428Y-114673571D01*
X159800000Y-115173571D02*
X159800000Y-116173571D01*
X159157142Y-115173571D02*
X159157142Y-115959285D01*
X159157142Y-115959285D02*
X159228571Y-116102142D01*
X159228571Y-116102142D02*
X159371428Y-116173571D01*
X159371428Y-116173571D02*
X159585714Y-116173571D01*
X159585714Y-116173571D02*
X159728571Y-116102142D01*
X159728571Y-116102142D02*
X159800000Y-116030714D01*
X160514285Y-116173571D02*
X160514285Y-115173571D01*
X160514285Y-114673571D02*
X160442857Y-114745000D01*
X160442857Y-114745000D02*
X160514285Y-114816428D01*
X160514285Y-114816428D02*
X160585714Y-114745000D01*
X160585714Y-114745000D02*
X160514285Y-114673571D01*
X160514285Y-114673571D02*
X160514285Y-114816428D01*
X185892857Y-127743571D02*
X186464285Y-127743571D01*
X186107142Y-128743571D02*
X186107142Y-127457857D01*
X186107142Y-127457857D02*
X186178571Y-127315000D01*
X186178571Y-127315000D02*
X186321428Y-127243571D01*
X186321428Y-127243571D02*
X186464285Y-127243571D01*
X187607143Y-128743571D02*
X187607143Y-127957857D01*
X187607143Y-127957857D02*
X187535714Y-127815000D01*
X187535714Y-127815000D02*
X187392857Y-127743571D01*
X187392857Y-127743571D02*
X187107143Y-127743571D01*
X187107143Y-127743571D02*
X186964285Y-127815000D01*
X187607143Y-128672142D02*
X187464285Y-128743571D01*
X187464285Y-128743571D02*
X187107143Y-128743571D01*
X187107143Y-128743571D02*
X186964285Y-128672142D01*
X186964285Y-128672142D02*
X186892857Y-128529285D01*
X186892857Y-128529285D02*
X186892857Y-128386428D01*
X186892857Y-128386428D02*
X186964285Y-128243571D01*
X186964285Y-128243571D02*
X187107143Y-128172142D01*
X187107143Y-128172142D02*
X187464285Y-128172142D01*
X187464285Y-128172142D02*
X187607143Y-128100714D01*
X188321428Y-128743571D02*
X188321428Y-127743571D01*
X188321428Y-128029285D02*
X188392857Y-127886428D01*
X188392857Y-127886428D02*
X188464286Y-127815000D01*
X188464286Y-127815000D02*
X188607143Y-127743571D01*
X188607143Y-127743571D02*
X188750000Y-127743571D01*
X189892857Y-128743571D02*
X189892857Y-127957857D01*
X189892857Y-127957857D02*
X189821428Y-127815000D01*
X189821428Y-127815000D02*
X189678571Y-127743571D01*
X189678571Y-127743571D02*
X189392857Y-127743571D01*
X189392857Y-127743571D02*
X189249999Y-127815000D01*
X189892857Y-128672142D02*
X189749999Y-128743571D01*
X189749999Y-128743571D02*
X189392857Y-128743571D01*
X189392857Y-128743571D02*
X189249999Y-128672142D01*
X189249999Y-128672142D02*
X189178571Y-128529285D01*
X189178571Y-128529285D02*
X189178571Y-128386428D01*
X189178571Y-128386428D02*
X189249999Y-128243571D01*
X189249999Y-128243571D02*
X189392857Y-128172142D01*
X189392857Y-128172142D02*
X189749999Y-128172142D01*
X189749999Y-128172142D02*
X189892857Y-128100714D01*
X184050000Y-131173571D02*
X184050000Y-130173571D01*
X184050000Y-130459285D02*
X184121429Y-130316428D01*
X184121429Y-130316428D02*
X184192858Y-130245000D01*
X184192858Y-130245000D02*
X184335715Y-130173571D01*
X184335715Y-130173571D02*
X184478572Y-130173571D01*
X185550000Y-131102142D02*
X185407143Y-131173571D01*
X185407143Y-131173571D02*
X185121429Y-131173571D01*
X185121429Y-131173571D02*
X184978571Y-131102142D01*
X184978571Y-131102142D02*
X184907143Y-130959285D01*
X184907143Y-130959285D02*
X184907143Y-130387857D01*
X184907143Y-130387857D02*
X184978571Y-130245000D01*
X184978571Y-130245000D02*
X185121429Y-130173571D01*
X185121429Y-130173571D02*
X185407143Y-130173571D01*
X185407143Y-130173571D02*
X185550000Y-130245000D01*
X185550000Y-130245000D02*
X185621429Y-130387857D01*
X185621429Y-130387857D02*
X185621429Y-130530714D01*
X185621429Y-130530714D02*
X184907143Y-130673571D01*
X186907143Y-131173571D02*
X186907143Y-130387857D01*
X186907143Y-130387857D02*
X186835714Y-130245000D01*
X186835714Y-130245000D02*
X186692857Y-130173571D01*
X186692857Y-130173571D02*
X186407143Y-130173571D01*
X186407143Y-130173571D02*
X186264285Y-130245000D01*
X186907143Y-131102142D02*
X186764285Y-131173571D01*
X186764285Y-131173571D02*
X186407143Y-131173571D01*
X186407143Y-131173571D02*
X186264285Y-131102142D01*
X186264285Y-131102142D02*
X186192857Y-130959285D01*
X186192857Y-130959285D02*
X186192857Y-130816428D01*
X186192857Y-130816428D02*
X186264285Y-130673571D01*
X186264285Y-130673571D02*
X186407143Y-130602142D01*
X186407143Y-130602142D02*
X186764285Y-130602142D01*
X186764285Y-130602142D02*
X186907143Y-130530714D01*
X188264286Y-131102142D02*
X188121428Y-131173571D01*
X188121428Y-131173571D02*
X187835714Y-131173571D01*
X187835714Y-131173571D02*
X187692857Y-131102142D01*
X187692857Y-131102142D02*
X187621428Y-131030714D01*
X187621428Y-131030714D02*
X187550000Y-130887857D01*
X187550000Y-130887857D02*
X187550000Y-130459285D01*
X187550000Y-130459285D02*
X187621428Y-130316428D01*
X187621428Y-130316428D02*
X187692857Y-130245000D01*
X187692857Y-130245000D02*
X187835714Y-130173571D01*
X187835714Y-130173571D02*
X188121428Y-130173571D01*
X188121428Y-130173571D02*
X188264286Y-130245000D01*
X188692857Y-130173571D02*
X189264285Y-130173571D01*
X188907142Y-129673571D02*
X188907142Y-130959285D01*
X188907142Y-130959285D02*
X188978571Y-131102142D01*
X188978571Y-131102142D02*
X189121428Y-131173571D01*
X189121428Y-131173571D02*
X189264285Y-131173571D01*
X189764285Y-131173571D02*
X189764285Y-130173571D01*
X189764285Y-129673571D02*
X189692857Y-129745000D01*
X189692857Y-129745000D02*
X189764285Y-129816428D01*
X189764285Y-129816428D02*
X189835714Y-129745000D01*
X189835714Y-129745000D02*
X189764285Y-129673571D01*
X189764285Y-129673571D02*
X189764285Y-129816428D01*
X191050000Y-131102142D02*
X190907143Y-131173571D01*
X190907143Y-131173571D02*
X190621429Y-131173571D01*
X190621429Y-131173571D02*
X190478571Y-131102142D01*
X190478571Y-131102142D02*
X190407143Y-130959285D01*
X190407143Y-130959285D02*
X190407143Y-130387857D01*
X190407143Y-130387857D02*
X190478571Y-130245000D01*
X190478571Y-130245000D02*
X190621429Y-130173571D01*
X190621429Y-130173571D02*
X190907143Y-130173571D01*
X190907143Y-130173571D02*
X191050000Y-130245000D01*
X191050000Y-130245000D02*
X191121429Y-130387857D01*
X191121429Y-130387857D02*
X191121429Y-130530714D01*
X191121429Y-130530714D02*
X190407143Y-130673571D01*
D11*
%TO.C,J2*%
X212997380Y-100333333D02*
X213711666Y-100333333D01*
X213711666Y-100333333D02*
X213854523Y-100380952D01*
X213854523Y-100380952D02*
X213949761Y-100476190D01*
X213949761Y-100476190D02*
X213997380Y-100619047D01*
X213997380Y-100619047D02*
X213997380Y-100714285D01*
X213092619Y-99904761D02*
X213045000Y-99857142D01*
X213045000Y-99857142D02*
X212997380Y-99761904D01*
X212997380Y-99761904D02*
X212997380Y-99523809D01*
X212997380Y-99523809D02*
X213045000Y-99428571D01*
X213045000Y-99428571D02*
X213092619Y-99380952D01*
X213092619Y-99380952D02*
X213187857Y-99333333D01*
X213187857Y-99333333D02*
X213283095Y-99333333D01*
X213283095Y-99333333D02*
X213425952Y-99380952D01*
X213425952Y-99380952D02*
X213997380Y-99952380D01*
X213997380Y-99952380D02*
X213997380Y-99333333D01*
D12*
%TO.C,R82*%
X189987553Y-58608839D02*
X189987553Y-57838839D01*
X188617553Y-57838839D02*
X191357553Y-57838839D01*
X191357553Y-57838839D02*
X191357553Y-51298839D01*
X188617553Y-51298839D02*
X188617553Y-57838839D01*
X191357553Y-51298839D02*
X188617553Y-51298839D01*
X189987553Y-50528839D02*
X189987553Y-51298839D01*
%TO.C,C7*%
X217402224Y-55161257D02*
X217847224Y-55161257D01*
X217402224Y-55161257D02*
X217402224Y-48921257D01*
X219697224Y-55161257D02*
X220142224Y-55161257D01*
X220142224Y-55161257D02*
X220142224Y-48921257D01*
X217402224Y-48921257D02*
X217847224Y-48921257D01*
X219697224Y-48921257D02*
X220142224Y-48921257D01*
%TO.C,R7*%
X182593972Y-72620000D02*
X182593972Y-71850000D01*
X181223972Y-71850000D02*
X183963972Y-71850000D01*
X183963972Y-71850000D02*
X183963972Y-65310000D01*
X181223972Y-65310000D02*
X181223972Y-71850000D01*
X183963972Y-65310000D02*
X181223972Y-65310000D01*
X182593972Y-64540000D02*
X182593972Y-65310000D01*
%TO.C,R81*%
X182593972Y-58620000D02*
X182593972Y-57850000D01*
X181223972Y-57850000D02*
X183963972Y-57850000D01*
X183963972Y-57850000D02*
X183963972Y-51310000D01*
X181223972Y-51310000D02*
X181223972Y-57850000D01*
X183963972Y-51310000D02*
X181223972Y-51310000D01*
X182593972Y-50540000D02*
X182593972Y-51310000D01*
%TO.C,J5*%
X237160000Y-119800000D02*
X237900000Y-119800000D01*
X237900000Y-119800000D02*
X237900000Y-119300000D01*
X227739000Y-119560000D02*
X237660000Y-119560000D01*
X227739000Y-119560000D02*
X227739000Y-109440000D01*
X230699000Y-119560000D02*
X230699000Y-109440000D01*
X235600000Y-119560000D02*
X235600000Y-109440000D01*
X237100000Y-119560000D02*
X237100000Y-109440000D01*
X237660000Y-119560000D02*
X237660000Y-109440000D01*
X234023000Y-113227000D02*
X234069000Y-113274000D01*
X234239000Y-113034000D02*
X234274000Y-113069000D01*
X231725000Y-110930000D02*
X231761000Y-110965000D01*
X231931000Y-110725000D02*
X231977000Y-110772000D01*
X227739000Y-109440000D02*
X237660000Y-109440000D01*
X232316001Y-118534999D02*
G75*
G03*
X233683042Y-118535426I684000J1534992D01*
G01*
X231465001Y-116316001D02*
G75*
G03*
X231464574Y-117683042I1534992J-684000D01*
G01*
X234534999Y-117684000D02*
G75*
G03*
X234680252Y-116971195I-1535000J683999D01*
G01*
X234679999Y-117000000D02*
G75*
G03*
X234534755Y-116316682I-1679999J0D01*
G01*
X233684000Y-115465000D02*
G75*
G03*
X232316958Y-115464574I-684000J-1535000D01*
G01*
X234680000Y-112000000D02*
G75*
G03*
X234680000Y-112000000I-1680000J0D01*
G01*
%TO.C,J3*%
X191330463Y-74978314D02*
X190000463Y-74978314D01*
X191330463Y-73648314D02*
X191330463Y-74978314D01*
X191330463Y-72378314D02*
X191330463Y-64698314D01*
X191330463Y-72378314D02*
X188670463Y-72378314D01*
X191330463Y-64698314D02*
X188670463Y-64698314D01*
X188670463Y-72378314D02*
X188670463Y-64698314D01*
%TO.C,D2*%
X223496668Y-63339055D02*
X223496668Y-64359055D01*
X224966668Y-64359055D02*
X222026668Y-64359055D01*
X222026668Y-64359055D02*
X222026668Y-69799055D01*
X224966668Y-65139055D02*
X222026668Y-65139055D01*
X224966668Y-65259055D02*
X222026668Y-65259055D01*
X224966668Y-65379055D02*
X222026668Y-65379055D01*
X224966668Y-69799055D02*
X224966668Y-64359055D01*
X222026668Y-69799055D02*
X224966668Y-69799055D01*
X223496668Y-70819055D02*
X223496668Y-69799055D01*
D11*
%TO.C,TP11*%
X177250000Y-75500000D02*
G75*
G03*
X177250000Y-75500000I-1750000J0D01*
G01*
D12*
%TO.C,J4*%
X237160000Y-69800000D02*
X237900000Y-69800000D01*
X237900000Y-69800000D02*
X237900000Y-69300000D01*
X227739000Y-69560000D02*
X237660000Y-69560000D01*
X227739000Y-69560000D02*
X227739000Y-59440000D01*
X230699000Y-69560000D02*
X230699000Y-59440000D01*
X235600000Y-69560000D02*
X235600000Y-59440000D01*
X237100000Y-69560000D02*
X237100000Y-59440000D01*
X237660000Y-69560000D02*
X237660000Y-59440000D01*
X234023000Y-63227000D02*
X234069000Y-63274000D01*
X234239000Y-63034000D02*
X234274000Y-63069000D01*
X231725000Y-60930000D02*
X231761000Y-60965000D01*
X231931000Y-60725000D02*
X231977000Y-60772000D01*
X227739000Y-59440000D02*
X237660000Y-59440000D01*
X232316001Y-68534999D02*
G75*
G03*
X233683042Y-68535426I684000J1534992D01*
G01*
X231465001Y-66316001D02*
G75*
G03*
X231464574Y-67683042I1534992J-684000D01*
G01*
X234534999Y-67684000D02*
G75*
G03*
X234680252Y-66971195I-1535000J683999D01*
G01*
X234679999Y-67000000D02*
G75*
G03*
X234534755Y-66316682I-1679999J0D01*
G01*
X233684000Y-65465000D02*
G75*
G03*
X232316958Y-65464574I-684000J-1535000D01*
G01*
X234680000Y-62000000D02*
G75*
G03*
X234680000Y-62000000I-1680000J0D01*
G01*
%TO.C,R0XR1*%
X221777482Y-112588413D02*
X221007482Y-112588413D01*
X221007482Y-113958413D02*
X221007482Y-111218413D01*
X221007482Y-111218413D02*
X214467482Y-111218413D01*
X214467482Y-113958413D02*
X221007482Y-113958413D01*
X214467482Y-111218413D02*
X214467482Y-113958413D01*
X213697482Y-112588413D02*
X214467482Y-112588413D01*
%TO.C,R5*%
X183040000Y-97500000D02*
X182270000Y-97500000D01*
X182270000Y-98870000D02*
X182270000Y-96130000D01*
X182270000Y-96130000D02*
X175730000Y-96130000D01*
X175730000Y-98870000D02*
X182270000Y-98870000D01*
X175730000Y-96130000D02*
X175730000Y-98870000D01*
X174960000Y-97500000D02*
X175730000Y-97500000D01*
D11*
%TO.C,TP12*%
X177750000Y-90000000D02*
G75*
G03*
X177750000Y-90000000I-1750000J0D01*
G01*
D12*
%TO.C,Q1*%
X165488458Y-91981416D02*
X166400626Y-91069249D01*
X164498509Y-90991467D02*
X165488458Y-91981416D01*
X165410676Y-90079299D02*
X164498509Y-90991467D01*
X166400413Y-91069118D02*
G75*
G03*
X165410676Y-90079299I1582544J2572150D01*
G01*
%TO.C,RL1*%
X226000000Y-82927379D02*
X226000000Y-83697379D01*
X227370000Y-83697379D02*
X224630000Y-83697379D01*
X224630000Y-83697379D02*
X224630000Y-90237379D01*
X227370000Y-90237379D02*
X227370000Y-83697379D01*
X224630000Y-90237379D02*
X227370000Y-90237379D01*
X226000000Y-91007379D02*
X226000000Y-90237379D01*
%TO.C,Q3*%
X150005501Y-103424968D02*
X150917669Y-102512801D01*
X149015552Y-102435019D02*
X150005501Y-103424968D01*
X149927719Y-101522851D02*
X149015552Y-102435019D01*
X150917456Y-102512670D02*
G75*
G03*
X149927719Y-101522851I1582544J2572150D01*
G01*
%TO.C,C3*%
X184966686Y-125748563D02*
X184966686Y-125118563D01*
X184651686Y-125433563D02*
X185281686Y-125433563D01*
X183575686Y-122248322D02*
X190035686Y-122248322D01*
X183575686Y-122208322D02*
X190035686Y-122208322D01*
X183575686Y-122168322D02*
X190035686Y-122168322D01*
X183577686Y-122128322D02*
X190033686Y-122128322D01*
X183578686Y-122088322D02*
X190032686Y-122088322D01*
X183581686Y-122048322D02*
X190029686Y-122048322D01*
X183583686Y-122008322D02*
X185765686Y-122008322D01*
X187845686Y-122008322D02*
X190027686Y-122008322D01*
X183587686Y-121968322D02*
X185765686Y-121968322D01*
X187845686Y-121968322D02*
X190023686Y-121968322D01*
X183590686Y-121928322D02*
X185765686Y-121928322D01*
X187845686Y-121928322D02*
X190020686Y-121928322D01*
X183594686Y-121888322D02*
X185765686Y-121888322D01*
X187845686Y-121888322D02*
X190016686Y-121888322D01*
X183599686Y-121848322D02*
X185765686Y-121848322D01*
X187845686Y-121848322D02*
X190011686Y-121848322D01*
X183604686Y-121808322D02*
X185765686Y-121808322D01*
X187845686Y-121808322D02*
X190006686Y-121808322D01*
X183610686Y-121768322D02*
X185765686Y-121768322D01*
X187845686Y-121768322D02*
X190000686Y-121768322D01*
X183616686Y-121728322D02*
X185765686Y-121728322D01*
X187845686Y-121728322D02*
X189994686Y-121728322D01*
X183623686Y-121688322D02*
X185765686Y-121688322D01*
X187845686Y-121688322D02*
X189987686Y-121688322D01*
X183630686Y-121648322D02*
X185765686Y-121648322D01*
X187845686Y-121648322D02*
X189980686Y-121648322D01*
X183638686Y-121608322D02*
X185765686Y-121608322D01*
X187845686Y-121608322D02*
X189972686Y-121608322D01*
X183646686Y-121568322D02*
X185765686Y-121568322D01*
X187845686Y-121568322D02*
X189964686Y-121568322D01*
X183655686Y-121527322D02*
X185765686Y-121527322D01*
X187845686Y-121527322D02*
X189955686Y-121527322D01*
X183664686Y-121487322D02*
X185765686Y-121487322D01*
X187845686Y-121487322D02*
X189946686Y-121487322D01*
X183674686Y-121447322D02*
X185765686Y-121447322D01*
X187845686Y-121447322D02*
X189936686Y-121447322D01*
X183684686Y-121407322D02*
X185765686Y-121407322D01*
X187845686Y-121407322D02*
X189926686Y-121407322D01*
X183695686Y-121367322D02*
X185765686Y-121367322D01*
X187845686Y-121367322D02*
X189915686Y-121367322D01*
X183707686Y-121327322D02*
X185765686Y-121327322D01*
X187845686Y-121327322D02*
X189903686Y-121327322D01*
X183719686Y-121287322D02*
X185765686Y-121287322D01*
X187845686Y-121287322D02*
X189891686Y-121287322D01*
X183731686Y-121247322D02*
X185765686Y-121247322D01*
X187845686Y-121247322D02*
X189879686Y-121247322D01*
X183744686Y-121207322D02*
X185765686Y-121207322D01*
X187845686Y-121207322D02*
X189866686Y-121207322D01*
X183758686Y-121167322D02*
X185765686Y-121167322D01*
X187845686Y-121167322D02*
X189852686Y-121167322D01*
X183772686Y-121127322D02*
X185765686Y-121127322D01*
X187845686Y-121127322D02*
X189838686Y-121127322D01*
X183787686Y-121087322D02*
X185765686Y-121087322D01*
X187845686Y-121087322D02*
X189823686Y-121087322D01*
X183803686Y-121047322D02*
X185765686Y-121047322D01*
X187845686Y-121047322D02*
X189807686Y-121047322D01*
X183819686Y-121007322D02*
X185765686Y-121007322D01*
X187845686Y-121007322D02*
X189791686Y-121007322D01*
X183835686Y-120967322D02*
X185765686Y-120967322D01*
X187845686Y-120967322D02*
X189775686Y-120967322D01*
X183853686Y-120927322D02*
X185765686Y-120927322D01*
X187845686Y-120927322D02*
X189757686Y-120927322D01*
X183871686Y-120887322D02*
X185765686Y-120887322D01*
X187845686Y-120887322D02*
X189739686Y-120887322D01*
X183889686Y-120847322D02*
X185765686Y-120847322D01*
X187845686Y-120847322D02*
X189721686Y-120847322D01*
X183909686Y-120807322D02*
X185765686Y-120807322D01*
X187845686Y-120807322D02*
X189701686Y-120807322D01*
X183929686Y-120767322D02*
X185765686Y-120767322D01*
X187845686Y-120767322D02*
X189681686Y-120767322D01*
X183949686Y-120727322D02*
X185765686Y-120727322D01*
X187845686Y-120727322D02*
X189661686Y-120727322D01*
X183971686Y-120687322D02*
X185765686Y-120687322D01*
X187845686Y-120687322D02*
X189639686Y-120687322D01*
X183993686Y-120647322D02*
X185765686Y-120647322D01*
X187845686Y-120647322D02*
X189617686Y-120647322D01*
X184015686Y-120607322D02*
X185765686Y-120607322D01*
X187845686Y-120607322D02*
X189595686Y-120607322D01*
X184039686Y-120567322D02*
X185765686Y-120567322D01*
X187845686Y-120567322D02*
X189571686Y-120567322D01*
X184063686Y-120527322D02*
X185765686Y-120527322D01*
X187845686Y-120527322D02*
X189547686Y-120527322D01*
X184089686Y-120487322D02*
X185765686Y-120487322D01*
X187845686Y-120487322D02*
X189521686Y-120487322D01*
X184115686Y-120447322D02*
X185765686Y-120447322D01*
X187845686Y-120447322D02*
X189495686Y-120447322D01*
X184141686Y-120407322D02*
X185765686Y-120407322D01*
X187845686Y-120407322D02*
X189469686Y-120407322D01*
X184169686Y-120367322D02*
X185765686Y-120367322D01*
X187845686Y-120367322D02*
X189441686Y-120367322D01*
X184198686Y-120327322D02*
X185765686Y-120327322D01*
X187845686Y-120327322D02*
X189412686Y-120327322D01*
X184227686Y-120287322D02*
X185765686Y-120287322D01*
X187845686Y-120287322D02*
X189383686Y-120287322D01*
X184257686Y-120247322D02*
X185765686Y-120247322D01*
X187845686Y-120247322D02*
X189353686Y-120247322D01*
X184289686Y-120207322D02*
X185765686Y-120207322D01*
X187845686Y-120207322D02*
X189321686Y-120207322D01*
X184321686Y-120167322D02*
X185765686Y-120167322D01*
X187845686Y-120167322D02*
X189289686Y-120167322D01*
X184355686Y-120127322D02*
X185765686Y-120127322D01*
X187845686Y-120127322D02*
X189255686Y-120127322D01*
X184389686Y-120087322D02*
X185765686Y-120087322D01*
X187845686Y-120087322D02*
X189221686Y-120087322D01*
X184425686Y-120047322D02*
X185765686Y-120047322D01*
X187845686Y-120047322D02*
X189185686Y-120047322D01*
X184462686Y-120007322D02*
X185765686Y-120007322D01*
X187845686Y-120007322D02*
X189148686Y-120007322D01*
X184500686Y-119967322D02*
X185765686Y-119967322D01*
X187845686Y-119967322D02*
X189110686Y-119967322D01*
X184540686Y-119927322D02*
X189070686Y-119927322D01*
X184581686Y-119887322D02*
X189029686Y-119887322D01*
X184623686Y-119847322D02*
X188987686Y-119847322D01*
X184668686Y-119807322D02*
X188942686Y-119807322D01*
X184713686Y-119767322D02*
X188897686Y-119767322D01*
X184761686Y-119727322D02*
X188849686Y-119727322D01*
X184810686Y-119687322D02*
X188800686Y-119687322D01*
X184861686Y-119647322D02*
X188749686Y-119647322D01*
X184915686Y-119607322D02*
X188695686Y-119607322D01*
X184971686Y-119567322D02*
X188639686Y-119567322D01*
X185029686Y-119527322D02*
X188581686Y-119527322D01*
X185091686Y-119487322D02*
X188519686Y-119487322D01*
X185155686Y-119447322D02*
X188455686Y-119447322D01*
X185224686Y-119407322D02*
X188386686Y-119407322D01*
X185296686Y-119367322D02*
X188314686Y-119367322D01*
X185373686Y-119327322D02*
X188237686Y-119327322D01*
X185455686Y-119287322D02*
X188155686Y-119287322D01*
X185543686Y-119247322D02*
X188067686Y-119247322D01*
X185640686Y-119207322D02*
X187970686Y-119207322D01*
X185746686Y-119167322D02*
X187864686Y-119167322D01*
X185865686Y-119127322D02*
X187745686Y-119127322D01*
X186003686Y-119087322D02*
X187607686Y-119087322D01*
X186172686Y-119047322D02*
X187438686Y-119047322D01*
X186403686Y-119007322D02*
X187207686Y-119007322D01*
X190075686Y-122248322D02*
G75*
G03*
X190075686Y-122248322I-3270000J0D01*
G01*
%TO.C,Rix1*%
X137292957Y-88500000D02*
X138062957Y-88500000D01*
X138062957Y-87130000D02*
X138062957Y-89870000D01*
X138062957Y-89870000D02*
X144602957Y-89870000D01*
X144602957Y-87130000D02*
X138062957Y-87130000D01*
X144602957Y-89870000D02*
X144602957Y-87130000D01*
X145372957Y-88500000D02*
X144602957Y-88500000D01*
D11*
%TO.C,TP10*%
X199382215Y-73641464D02*
G75*
G03*
X199382215Y-73641464I-1750000J0D01*
G01*
D12*
%TO.C,C8*%
X212315000Y-46904989D02*
X212315000Y-47704989D01*
X212715000Y-47304989D02*
X211915000Y-47304989D01*
X214080000Y-51314687D02*
X205920000Y-51314687D01*
X214080000Y-51354687D02*
X205920000Y-51354687D01*
X214080000Y-51394687D02*
X205920000Y-51394687D01*
X214079000Y-51434687D02*
X205921000Y-51434687D01*
X214077000Y-51474687D02*
X205923000Y-51474687D01*
X214076000Y-51514687D02*
X205924000Y-51514687D01*
X214074000Y-51554687D02*
X205926000Y-51554687D01*
X214071000Y-51594687D02*
X205929000Y-51594687D01*
X214068000Y-51634687D02*
X205932000Y-51634687D01*
X214065000Y-51674687D02*
X205935000Y-51674687D01*
X214061000Y-51714687D02*
X205939000Y-51714687D01*
X214057000Y-51754687D02*
X205943000Y-51754687D01*
X214052000Y-51794687D02*
X205948000Y-51794687D01*
X214048000Y-51834687D02*
X205952000Y-51834687D01*
X214042000Y-51874687D02*
X205958000Y-51874687D01*
X214037000Y-51914687D02*
X205963000Y-51914687D01*
X214030000Y-51954687D02*
X205970000Y-51954687D01*
X214024000Y-51994687D02*
X205976000Y-51994687D01*
X214017000Y-52035687D02*
X211040000Y-52035687D01*
X208960000Y-52035687D02*
X205983000Y-52035687D01*
X214010000Y-52075687D02*
X211040000Y-52075687D01*
X208960000Y-52075687D02*
X205990000Y-52075687D01*
X214002000Y-52115687D02*
X211040000Y-52115687D01*
X208960000Y-52115687D02*
X205998000Y-52115687D01*
X213994000Y-52155687D02*
X211040000Y-52155687D01*
X208960000Y-52155687D02*
X206006000Y-52155687D01*
X213985000Y-52195687D02*
X211040000Y-52195687D01*
X208960000Y-52195687D02*
X206015000Y-52195687D01*
X213976000Y-52235687D02*
X211040000Y-52235687D01*
X208960000Y-52235687D02*
X206024000Y-52235687D01*
X213967000Y-52275687D02*
X211040000Y-52275687D01*
X208960000Y-52275687D02*
X206033000Y-52275687D01*
X213957000Y-52315687D02*
X211040000Y-52315687D01*
X208960000Y-52315687D02*
X206043000Y-52315687D01*
X213947000Y-52355687D02*
X211040000Y-52355687D01*
X208960000Y-52355687D02*
X206053000Y-52355687D01*
X213936000Y-52395687D02*
X211040000Y-52395687D01*
X208960000Y-52395687D02*
X206064000Y-52395687D01*
X213925000Y-52435687D02*
X211040000Y-52435687D01*
X208960000Y-52435687D02*
X206075000Y-52435687D01*
X213914000Y-52475687D02*
X211040000Y-52475687D01*
X208960000Y-52475687D02*
X206086000Y-52475687D01*
X213902000Y-52515687D02*
X211040000Y-52515687D01*
X208960000Y-52515687D02*
X206098000Y-52515687D01*
X213889000Y-52555687D02*
X211040000Y-52555687D01*
X208960000Y-52555687D02*
X206111000Y-52555687D01*
X213877000Y-52595687D02*
X211040000Y-52595687D01*
X208960000Y-52595687D02*
X206123000Y-52595687D01*
X213863000Y-52635687D02*
X211040000Y-52635687D01*
X208960000Y-52635687D02*
X206137000Y-52635687D01*
X213850000Y-52675687D02*
X211040000Y-52675687D01*
X208960000Y-52675687D02*
X206150000Y-52675687D01*
X213835000Y-52715687D02*
X211040000Y-52715687D01*
X208960000Y-52715687D02*
X206165000Y-52715687D01*
X213821000Y-52755687D02*
X211040000Y-52755687D01*
X208960000Y-52755687D02*
X206179000Y-52755687D01*
X213805000Y-52795687D02*
X211040000Y-52795687D01*
X208960000Y-52795687D02*
X206195000Y-52795687D01*
X213790000Y-52835687D02*
X211040000Y-52835687D01*
X208960000Y-52835687D02*
X206210000Y-52835687D01*
X213774000Y-52875687D02*
X211040000Y-52875687D01*
X208960000Y-52875687D02*
X206226000Y-52875687D01*
X213757000Y-52915687D02*
X211040000Y-52915687D01*
X208960000Y-52915687D02*
X206243000Y-52915687D01*
X213740000Y-52955687D02*
X211040000Y-52955687D01*
X208960000Y-52955687D02*
X206260000Y-52955687D01*
X213722000Y-52995687D02*
X211040000Y-52995687D01*
X208960000Y-52995687D02*
X206278000Y-52995687D01*
X213704000Y-53035687D02*
X211040000Y-53035687D01*
X208960000Y-53035687D02*
X206296000Y-53035687D01*
X213686000Y-53075687D02*
X211040000Y-53075687D01*
X208960000Y-53075687D02*
X206314000Y-53075687D01*
X213666000Y-53115687D02*
X211040000Y-53115687D01*
X208960000Y-53115687D02*
X206334000Y-53115687D01*
X213647000Y-53155687D02*
X211040000Y-53155687D01*
X208960000Y-53155687D02*
X206353000Y-53155687D01*
X213627000Y-53195687D02*
X211040000Y-53195687D01*
X208960000Y-53195687D02*
X206373000Y-53195687D01*
X213606000Y-53235687D02*
X211040000Y-53235687D01*
X208960000Y-53235687D02*
X206394000Y-53235687D01*
X213584000Y-53275687D02*
X211040000Y-53275687D01*
X208960000Y-53275687D02*
X206416000Y-53275687D01*
X213562000Y-53315687D02*
X211040000Y-53315687D01*
X208960000Y-53315687D02*
X206438000Y-53315687D01*
X213540000Y-53355687D02*
X211040000Y-53355687D01*
X208960000Y-53355687D02*
X206460000Y-53355687D01*
X213517000Y-53395687D02*
X211040000Y-53395687D01*
X208960000Y-53395687D02*
X206483000Y-53395687D01*
X213493000Y-53435687D02*
X211040000Y-53435687D01*
X208960000Y-53435687D02*
X206507000Y-53435687D01*
X213469000Y-53475687D02*
X211040000Y-53475687D01*
X208960000Y-53475687D02*
X206531000Y-53475687D01*
X213444000Y-53515687D02*
X211040000Y-53515687D01*
X208960000Y-53515687D02*
X206556000Y-53515687D01*
X213418000Y-53555687D02*
X211040000Y-53555687D01*
X208960000Y-53555687D02*
X206582000Y-53555687D01*
X213392000Y-53595687D02*
X211040000Y-53595687D01*
X208960000Y-53595687D02*
X206608000Y-53595687D01*
X213365000Y-53635687D02*
X211040000Y-53635687D01*
X208960000Y-53635687D02*
X206635000Y-53635687D01*
X213338000Y-53675687D02*
X211040000Y-53675687D01*
X208960000Y-53675687D02*
X206662000Y-53675687D01*
X213309000Y-53715687D02*
X211040000Y-53715687D01*
X208960000Y-53715687D02*
X206691000Y-53715687D01*
X213280000Y-53755687D02*
X211040000Y-53755687D01*
X208960000Y-53755687D02*
X206720000Y-53755687D01*
X213250000Y-53795687D02*
X211040000Y-53795687D01*
X208960000Y-53795687D02*
X206750000Y-53795687D01*
X213220000Y-53835687D02*
X211040000Y-53835687D01*
X208960000Y-53835687D02*
X206780000Y-53835687D01*
X213189000Y-53875687D02*
X211040000Y-53875687D01*
X208960000Y-53875687D02*
X206811000Y-53875687D01*
X213156000Y-53915687D02*
X211040000Y-53915687D01*
X208960000Y-53915687D02*
X206844000Y-53915687D01*
X213124000Y-53955687D02*
X211040000Y-53955687D01*
X208960000Y-53955687D02*
X206876000Y-53955687D01*
X213090000Y-53995687D02*
X211040000Y-53995687D01*
X208960000Y-53995687D02*
X206910000Y-53995687D01*
X213055000Y-54035687D02*
X211040000Y-54035687D01*
X208960000Y-54035687D02*
X206945000Y-54035687D01*
X213019000Y-54075687D02*
X211040000Y-54075687D01*
X208960000Y-54075687D02*
X206981000Y-54075687D01*
X212983000Y-54115687D02*
X207017000Y-54115687D01*
X212945000Y-54155687D02*
X207055000Y-54155687D01*
X212907000Y-54195687D02*
X207093000Y-54195687D01*
X212867000Y-54235687D02*
X207133000Y-54235687D01*
X212826000Y-54275687D02*
X207174000Y-54275687D01*
X212784000Y-54315687D02*
X207216000Y-54315687D01*
X212741000Y-54355687D02*
X207259000Y-54355687D01*
X212697000Y-54395687D02*
X207303000Y-54395687D01*
X212651000Y-54435687D02*
X207349000Y-54435687D01*
X212604000Y-54475687D02*
X207396000Y-54475687D01*
X212556000Y-54515687D02*
X207444000Y-54515687D01*
X212505000Y-54555687D02*
X207495000Y-54555687D01*
X212454000Y-54595687D02*
X207546000Y-54595687D01*
X212400000Y-54635687D02*
X207600000Y-54635687D01*
X212345000Y-54675687D02*
X207655000Y-54675687D01*
X212287000Y-54715687D02*
X207713000Y-54715687D01*
X212228000Y-54755687D02*
X207772000Y-54755687D01*
X212166000Y-54795687D02*
X207834000Y-54795687D01*
X212102000Y-54835687D02*
X207898000Y-54835687D01*
X212034000Y-54875687D02*
X207966000Y-54875687D01*
X211964000Y-54915687D02*
X208036000Y-54915687D01*
X211890000Y-54955687D02*
X208110000Y-54955687D01*
X211813000Y-54995687D02*
X208187000Y-54995687D01*
X211731000Y-55035687D02*
X208269000Y-55035687D01*
X211645000Y-55075687D02*
X208355000Y-55075687D01*
X211552000Y-55115687D02*
X208448000Y-55115687D01*
X211453000Y-55155687D02*
X208547000Y-55155687D01*
X211346000Y-55195687D02*
X208654000Y-55195687D01*
X211229000Y-55235687D02*
X208771000Y-55235687D01*
X211098000Y-55275687D02*
X208902000Y-55275687D01*
X210948000Y-55315687D02*
X209052000Y-55315687D01*
X210768000Y-55355687D02*
X209232000Y-55355687D01*
X210533000Y-55395687D02*
X209467000Y-55395687D01*
X214120000Y-51314687D02*
G75*
G03*
X214120000Y-51314687I-4120000J0D01*
G01*
%TO.C,R13*%
X199745800Y-50579662D02*
X199745800Y-51349662D01*
X201115800Y-51349662D02*
X198375800Y-51349662D01*
X198375800Y-51349662D02*
X198375800Y-57889662D01*
X201115800Y-57889662D02*
X201115800Y-51349662D01*
X198375800Y-57889662D02*
X201115800Y-57889662D01*
X199745800Y-58659662D02*
X199745800Y-57889662D01*
D11*
%TO.C,TP9*%
X199250000Y-88000000D02*
G75*
G03*
X199250000Y-88000000I-1750000J0D01*
G01*
D12*
%TO.C,Q4*%
X170497652Y-60291997D02*
X169585484Y-61204164D01*
X171487601Y-61281946D02*
X170497652Y-60291997D01*
X170575434Y-62194114D02*
X171487601Y-61281946D01*
X169585697Y-61204295D02*
G75*
G03*
X170575434Y-62194114I-1582544J-2572150D01*
G01*
D11*
%TO.C,TP5*%
X233750000Y-81862658D02*
G75*
G03*
X233750000Y-81862658I-1750000J0D01*
G01*
D12*
%TO.C,R3*%
X160370184Y-79540000D02*
X160370184Y-78770000D01*
X159000184Y-78770000D02*
X161740184Y-78770000D01*
X161740184Y-78770000D02*
X161740184Y-72230000D01*
X159000184Y-72230000D02*
X159000184Y-78770000D01*
X161740184Y-72230000D02*
X159000184Y-72230000D01*
X160370184Y-71460000D02*
X160370184Y-72230000D01*
%TO.C,D1*%
X198219839Y-68330000D02*
X201309839Y-68330000D01*
X199765301Y-62780001D02*
G75*
G03*
X198220009Y-68329999I-462J-2989999D01*
G01*
X201309669Y-68330000D02*
G75*
G03*
X199764377Y-62780000I-1544830J2560000D01*
G01*
X202264839Y-65770000D02*
G75*
G03*
X202264839Y-65770000I-2500000J0D01*
G01*
D11*
%TO.C,TP7*%
X115250000Y-60500000D02*
G75*
G03*
X115250000Y-60500000I-1750000J0D01*
G01*
D12*
%TO.C,R12*%
X113500000Y-102040000D02*
X113500000Y-102810000D01*
X114870000Y-102810000D02*
X112130000Y-102810000D01*
X112130000Y-102810000D02*
X112130000Y-109350000D01*
X114870000Y-109350000D02*
X114870000Y-102810000D01*
X112130000Y-109350000D02*
X114870000Y-109350000D01*
X113500000Y-110120000D02*
X113500000Y-109350000D01*
%TO.C,Q2*%
X185072384Y-77127560D02*
X184160216Y-78039727D01*
X186062333Y-78117509D02*
X185072384Y-77127560D01*
X185150166Y-79029677D02*
X186062333Y-78117509D01*
X184160429Y-78039858D02*
G75*
G03*
X185150166Y-79029677I-1582544J-2572150D01*
G01*
%TO.C,C4*%
X192839000Y-96249759D02*
X192839000Y-96879759D01*
X193154000Y-96564759D02*
X192524000Y-96564759D01*
X194230000Y-99750000D02*
X187770000Y-99750000D01*
X194230000Y-99790000D02*
X187770000Y-99790000D01*
X194230000Y-99830000D02*
X187770000Y-99830000D01*
X194228000Y-99870000D02*
X187772000Y-99870000D01*
X194227000Y-99910000D02*
X187773000Y-99910000D01*
X194224000Y-99950000D02*
X187776000Y-99950000D01*
X194222000Y-99990000D02*
X192040000Y-99990000D01*
X189960000Y-99990000D02*
X187778000Y-99990000D01*
X194218000Y-100030000D02*
X192040000Y-100030000D01*
X189960000Y-100030000D02*
X187782000Y-100030000D01*
X194215000Y-100070000D02*
X192040000Y-100070000D01*
X189960000Y-100070000D02*
X187785000Y-100070000D01*
X194211000Y-100110000D02*
X192040000Y-100110000D01*
X189960000Y-100110000D02*
X187789000Y-100110000D01*
X194206000Y-100150000D02*
X192040000Y-100150000D01*
X189960000Y-100150000D02*
X187794000Y-100150000D01*
X194201000Y-100190000D02*
X192040000Y-100190000D01*
X189960000Y-100190000D02*
X187799000Y-100190000D01*
X194195000Y-100230000D02*
X192040000Y-100230000D01*
X189960000Y-100230000D02*
X187805000Y-100230000D01*
X194189000Y-100270000D02*
X192040000Y-100270000D01*
X189960000Y-100270000D02*
X187811000Y-100270000D01*
X194182000Y-100310000D02*
X192040000Y-100310000D01*
X189960000Y-100310000D02*
X187818000Y-100310000D01*
X194175000Y-100350000D02*
X192040000Y-100350000D01*
X189960000Y-100350000D02*
X187825000Y-100350000D01*
X194167000Y-100390000D02*
X192040000Y-100390000D01*
X189960000Y-100390000D02*
X187833000Y-100390000D01*
X194159000Y-100430000D02*
X192040000Y-100430000D01*
X189960000Y-100430000D02*
X187841000Y-100430000D01*
X194150000Y-100471000D02*
X192040000Y-100471000D01*
X189960000Y-100471000D02*
X187850000Y-100471000D01*
X194141000Y-100511000D02*
X192040000Y-100511000D01*
X189960000Y-100511000D02*
X187859000Y-100511000D01*
X194131000Y-100551000D02*
X192040000Y-100551000D01*
X189960000Y-100551000D02*
X187869000Y-100551000D01*
X194121000Y-100591000D02*
X192040000Y-100591000D01*
X189960000Y-100591000D02*
X187879000Y-100591000D01*
X194110000Y-100631000D02*
X192040000Y-100631000D01*
X189960000Y-100631000D02*
X187890000Y-100631000D01*
X194098000Y-100671000D02*
X192040000Y-100671000D01*
X189960000Y-100671000D02*
X187902000Y-100671000D01*
X194086000Y-100711000D02*
X192040000Y-100711000D01*
X189960000Y-100711000D02*
X187914000Y-100711000D01*
X194074000Y-100751000D02*
X192040000Y-100751000D01*
X189960000Y-100751000D02*
X187926000Y-100751000D01*
X194061000Y-100791000D02*
X192040000Y-100791000D01*
X189960000Y-100791000D02*
X187939000Y-100791000D01*
X194047000Y-100831000D02*
X192040000Y-100831000D01*
X189960000Y-100831000D02*
X187953000Y-100831000D01*
X194033000Y-100871000D02*
X192040000Y-100871000D01*
X189960000Y-100871000D02*
X187967000Y-100871000D01*
X194018000Y-100911000D02*
X192040000Y-100911000D01*
X189960000Y-100911000D02*
X187982000Y-100911000D01*
X194002000Y-100951000D02*
X192040000Y-100951000D01*
X189960000Y-100951000D02*
X187998000Y-100951000D01*
X193986000Y-100991000D02*
X192040000Y-100991000D01*
X189960000Y-100991000D02*
X188014000Y-100991000D01*
X193970000Y-101031000D02*
X192040000Y-101031000D01*
X189960000Y-101031000D02*
X188030000Y-101031000D01*
X193952000Y-101071000D02*
X192040000Y-101071000D01*
X189960000Y-101071000D02*
X188048000Y-101071000D01*
X193934000Y-101111000D02*
X192040000Y-101111000D01*
X189960000Y-101111000D02*
X188066000Y-101111000D01*
X193916000Y-101151000D02*
X192040000Y-101151000D01*
X189960000Y-101151000D02*
X188084000Y-101151000D01*
X193896000Y-101191000D02*
X192040000Y-101191000D01*
X189960000Y-101191000D02*
X188104000Y-101191000D01*
X193876000Y-101231000D02*
X192040000Y-101231000D01*
X189960000Y-101231000D02*
X188124000Y-101231000D01*
X193856000Y-101271000D02*
X192040000Y-101271000D01*
X189960000Y-101271000D02*
X188144000Y-101271000D01*
X193834000Y-101311000D02*
X192040000Y-101311000D01*
X189960000Y-101311000D02*
X188166000Y-101311000D01*
X193812000Y-101351000D02*
X192040000Y-101351000D01*
X189960000Y-101351000D02*
X188188000Y-101351000D01*
X193790000Y-101391000D02*
X192040000Y-101391000D01*
X189960000Y-101391000D02*
X188210000Y-101391000D01*
X193766000Y-101431000D02*
X192040000Y-101431000D01*
X189960000Y-101431000D02*
X188234000Y-101431000D01*
X193742000Y-101471000D02*
X192040000Y-101471000D01*
X189960000Y-101471000D02*
X188258000Y-101471000D01*
X193716000Y-101511000D02*
X192040000Y-101511000D01*
X189960000Y-101511000D02*
X188284000Y-101511000D01*
X193690000Y-101551000D02*
X192040000Y-101551000D01*
X189960000Y-101551000D02*
X188310000Y-101551000D01*
X193664000Y-101591000D02*
X192040000Y-101591000D01*
X189960000Y-101591000D02*
X188336000Y-101591000D01*
X193636000Y-101631000D02*
X192040000Y-101631000D01*
X189960000Y-101631000D02*
X188364000Y-101631000D01*
X193607000Y-101671000D02*
X192040000Y-101671000D01*
X189960000Y-101671000D02*
X188393000Y-101671000D01*
X193578000Y-101711000D02*
X192040000Y-101711000D01*
X189960000Y-101711000D02*
X188422000Y-101711000D01*
X193548000Y-101751000D02*
X192040000Y-101751000D01*
X189960000Y-101751000D02*
X188452000Y-101751000D01*
X193516000Y-101791000D02*
X192040000Y-101791000D01*
X189960000Y-101791000D02*
X188484000Y-101791000D01*
X193484000Y-101831000D02*
X192040000Y-101831000D01*
X189960000Y-101831000D02*
X188516000Y-101831000D01*
X193450000Y-101871000D02*
X192040000Y-101871000D01*
X189960000Y-101871000D02*
X188550000Y-101871000D01*
X193416000Y-101911000D02*
X192040000Y-101911000D01*
X189960000Y-101911000D02*
X188584000Y-101911000D01*
X193380000Y-101951000D02*
X192040000Y-101951000D01*
X189960000Y-101951000D02*
X188620000Y-101951000D01*
X193343000Y-101991000D02*
X192040000Y-101991000D01*
X189960000Y-101991000D02*
X188657000Y-101991000D01*
X193305000Y-102031000D02*
X192040000Y-102031000D01*
X189960000Y-102031000D02*
X188695000Y-102031000D01*
X193265000Y-102071000D02*
X188735000Y-102071000D01*
X193224000Y-102111000D02*
X188776000Y-102111000D01*
X193182000Y-102151000D02*
X188818000Y-102151000D01*
X193137000Y-102191000D02*
X188863000Y-102191000D01*
X193092000Y-102231000D02*
X188908000Y-102231000D01*
X193044000Y-102271000D02*
X188956000Y-102271000D01*
X192995000Y-102311000D02*
X189005000Y-102311000D01*
X192944000Y-102351000D02*
X189056000Y-102351000D01*
X192890000Y-102391000D02*
X189110000Y-102391000D01*
X192834000Y-102431000D02*
X189166000Y-102431000D01*
X192776000Y-102471000D02*
X189224000Y-102471000D01*
X192714000Y-102511000D02*
X189286000Y-102511000D01*
X192650000Y-102551000D02*
X189350000Y-102551000D01*
X192581000Y-102591000D02*
X189419000Y-102591000D01*
X192509000Y-102631000D02*
X189491000Y-102631000D01*
X192432000Y-102671000D02*
X189568000Y-102671000D01*
X192350000Y-102711000D02*
X189650000Y-102711000D01*
X192262000Y-102751000D02*
X189738000Y-102751000D01*
X192165000Y-102791000D02*
X189835000Y-102791000D01*
X192059000Y-102831000D02*
X189941000Y-102831000D01*
X191940000Y-102871000D02*
X190060000Y-102871000D01*
X191802000Y-102911000D02*
X190198000Y-102911000D01*
X191633000Y-102951000D02*
X190367000Y-102951000D01*
X191402000Y-102991000D02*
X190598000Y-102991000D01*
X194270000Y-99750000D02*
G75*
G03*
X194270000Y-99750000I-3270000J0D01*
G01*
%TO.C,C5*%
X206340302Y-79585410D02*
X207140302Y-79585410D01*
X206740302Y-79185410D02*
X206740302Y-79985410D01*
X210750000Y-77820410D02*
X210750000Y-85980410D01*
X210790000Y-77820410D02*
X210790000Y-85980410D01*
X210830000Y-77820410D02*
X210830000Y-85980410D01*
X210870000Y-77821410D02*
X210870000Y-85979410D01*
X210910000Y-77823410D02*
X210910000Y-85977410D01*
X210950000Y-77824410D02*
X210950000Y-85976410D01*
X210990000Y-77826410D02*
X210990000Y-85974410D01*
X211030000Y-77829410D02*
X211030000Y-85971410D01*
X211070000Y-77832410D02*
X211070000Y-85968410D01*
X211110000Y-77835410D02*
X211110000Y-85965410D01*
X211150000Y-77839410D02*
X211150000Y-85961410D01*
X211190000Y-77843410D02*
X211190000Y-85957410D01*
X211230000Y-77848410D02*
X211230000Y-85952410D01*
X211270000Y-77852410D02*
X211270000Y-85948410D01*
X211310000Y-77858410D02*
X211310000Y-85942410D01*
X211350000Y-77863410D02*
X211350000Y-85937410D01*
X211390000Y-77870410D02*
X211390000Y-85930410D01*
X211430000Y-77876410D02*
X211430000Y-85924410D01*
X211471000Y-77883410D02*
X211471000Y-80860410D01*
X211471000Y-82940410D02*
X211471000Y-85917410D01*
X211511000Y-77890410D02*
X211511000Y-80860410D01*
X211511000Y-82940410D02*
X211511000Y-85910410D01*
X211551000Y-77898410D02*
X211551000Y-80860410D01*
X211551000Y-82940410D02*
X211551000Y-85902410D01*
X211591000Y-77906410D02*
X211591000Y-80860410D01*
X211591000Y-82940410D02*
X211591000Y-85894410D01*
X211631000Y-77915410D02*
X211631000Y-80860410D01*
X211631000Y-82940410D02*
X211631000Y-85885410D01*
X211671000Y-77924410D02*
X211671000Y-80860410D01*
X211671000Y-82940410D02*
X211671000Y-85876410D01*
X211711000Y-77933410D02*
X211711000Y-80860410D01*
X211711000Y-82940410D02*
X211711000Y-85867410D01*
X211751000Y-77943410D02*
X211751000Y-80860410D01*
X211751000Y-82940410D02*
X211751000Y-85857410D01*
X211791000Y-77953410D02*
X211791000Y-80860410D01*
X211791000Y-82940410D02*
X211791000Y-85847410D01*
X211831000Y-77964410D02*
X211831000Y-80860410D01*
X211831000Y-82940410D02*
X211831000Y-85836410D01*
X211871000Y-77975410D02*
X211871000Y-80860410D01*
X211871000Y-82940410D02*
X211871000Y-85825410D01*
X211911000Y-77986410D02*
X211911000Y-80860410D01*
X211911000Y-82940410D02*
X211911000Y-85814410D01*
X211951000Y-77998410D02*
X211951000Y-80860410D01*
X211951000Y-82940410D02*
X211951000Y-85802410D01*
X211991000Y-78011410D02*
X211991000Y-80860410D01*
X211991000Y-82940410D02*
X211991000Y-85789410D01*
X212031000Y-78023410D02*
X212031000Y-80860410D01*
X212031000Y-82940410D02*
X212031000Y-85777410D01*
X212071000Y-78037410D02*
X212071000Y-80860410D01*
X212071000Y-82940410D02*
X212071000Y-85763410D01*
X212111000Y-78050410D02*
X212111000Y-80860410D01*
X212111000Y-82940410D02*
X212111000Y-85750410D01*
X212151000Y-78065410D02*
X212151000Y-80860410D01*
X212151000Y-82940410D02*
X212151000Y-85735410D01*
X212191000Y-78079410D02*
X212191000Y-80860410D01*
X212191000Y-82940410D02*
X212191000Y-85721410D01*
X212231000Y-78095410D02*
X212231000Y-80860410D01*
X212231000Y-82940410D02*
X212231000Y-85705410D01*
X212271000Y-78110410D02*
X212271000Y-80860410D01*
X212271000Y-82940410D02*
X212271000Y-85690410D01*
X212311000Y-78126410D02*
X212311000Y-80860410D01*
X212311000Y-82940410D02*
X212311000Y-85674410D01*
X212351000Y-78143410D02*
X212351000Y-80860410D01*
X212351000Y-82940410D02*
X212351000Y-85657410D01*
X212391000Y-78160410D02*
X212391000Y-80860410D01*
X212391000Y-82940410D02*
X212391000Y-85640410D01*
X212431000Y-78178410D02*
X212431000Y-80860410D01*
X212431000Y-82940410D02*
X212431000Y-85622410D01*
X212471000Y-78196410D02*
X212471000Y-80860410D01*
X212471000Y-82940410D02*
X212471000Y-85604410D01*
X212511000Y-78214410D02*
X212511000Y-80860410D01*
X212511000Y-82940410D02*
X212511000Y-85586410D01*
X212551000Y-78234410D02*
X212551000Y-80860410D01*
X212551000Y-82940410D02*
X212551000Y-85566410D01*
X212591000Y-78253410D02*
X212591000Y-80860410D01*
X212591000Y-82940410D02*
X212591000Y-85547410D01*
X212631000Y-78273410D02*
X212631000Y-80860410D01*
X212631000Y-82940410D02*
X212631000Y-85527410D01*
X212671000Y-78294410D02*
X212671000Y-80860410D01*
X212671000Y-82940410D02*
X212671000Y-85506410D01*
X212711000Y-78316410D02*
X212711000Y-80860410D01*
X212711000Y-82940410D02*
X212711000Y-85484410D01*
X212751000Y-78338410D02*
X212751000Y-80860410D01*
X212751000Y-82940410D02*
X212751000Y-85462410D01*
X212791000Y-78360410D02*
X212791000Y-80860410D01*
X212791000Y-82940410D02*
X212791000Y-85440410D01*
X212831000Y-78383410D02*
X212831000Y-80860410D01*
X212831000Y-82940410D02*
X212831000Y-85417410D01*
X212871000Y-78407410D02*
X212871000Y-80860410D01*
X212871000Y-82940410D02*
X212871000Y-85393410D01*
X212911000Y-78431410D02*
X212911000Y-80860410D01*
X212911000Y-82940410D02*
X212911000Y-85369410D01*
X212951000Y-78456410D02*
X212951000Y-80860410D01*
X212951000Y-82940410D02*
X212951000Y-85344410D01*
X212991000Y-78482410D02*
X212991000Y-80860410D01*
X212991000Y-82940410D02*
X212991000Y-85318410D01*
X213031000Y-78508410D02*
X213031000Y-80860410D01*
X213031000Y-82940410D02*
X213031000Y-85292410D01*
X213071000Y-78535410D02*
X213071000Y-80860410D01*
X213071000Y-82940410D02*
X213071000Y-85265410D01*
X213111000Y-78562410D02*
X213111000Y-80860410D01*
X213111000Y-82940410D02*
X213111000Y-85238410D01*
X213151000Y-78591410D02*
X213151000Y-80860410D01*
X213151000Y-82940410D02*
X213151000Y-85209410D01*
X213191000Y-78620410D02*
X213191000Y-80860410D01*
X213191000Y-82940410D02*
X213191000Y-85180410D01*
X213231000Y-78650410D02*
X213231000Y-80860410D01*
X213231000Y-82940410D02*
X213231000Y-85150410D01*
X213271000Y-78680410D02*
X213271000Y-80860410D01*
X213271000Y-82940410D02*
X213271000Y-85120410D01*
X213311000Y-78711410D02*
X213311000Y-80860410D01*
X213311000Y-82940410D02*
X213311000Y-85089410D01*
X213351000Y-78744410D02*
X213351000Y-80860410D01*
X213351000Y-82940410D02*
X213351000Y-85056410D01*
X213391000Y-78776410D02*
X213391000Y-80860410D01*
X213391000Y-82940410D02*
X213391000Y-85024410D01*
X213431000Y-78810410D02*
X213431000Y-80860410D01*
X213431000Y-82940410D02*
X213431000Y-84990410D01*
X213471000Y-78845410D02*
X213471000Y-80860410D01*
X213471000Y-82940410D02*
X213471000Y-84955410D01*
X213511000Y-78881410D02*
X213511000Y-80860410D01*
X213511000Y-82940410D02*
X213511000Y-84919410D01*
X213551000Y-78917410D02*
X213551000Y-84883410D01*
X213591000Y-78955410D02*
X213591000Y-84845410D01*
X213631000Y-78993410D02*
X213631000Y-84807410D01*
X213671000Y-79033410D02*
X213671000Y-84767410D01*
X213711000Y-79074410D02*
X213711000Y-84726410D01*
X213751000Y-79116410D02*
X213751000Y-84684410D01*
X213791000Y-79159410D02*
X213791000Y-84641410D01*
X213831000Y-79203410D02*
X213831000Y-84597410D01*
X213871000Y-79249410D02*
X213871000Y-84551410D01*
X213911000Y-79296410D02*
X213911000Y-84504410D01*
X213951000Y-79344410D02*
X213951000Y-84456410D01*
X213991000Y-79395410D02*
X213991000Y-84405410D01*
X214031000Y-79446410D02*
X214031000Y-84354410D01*
X214071000Y-79500410D02*
X214071000Y-84300410D01*
X214111000Y-79555410D02*
X214111000Y-84245410D01*
X214151000Y-79613410D02*
X214151000Y-84187410D01*
X214191000Y-79672410D02*
X214191000Y-84128410D01*
X214231000Y-79734410D02*
X214231000Y-84066410D01*
X214271000Y-79798410D02*
X214271000Y-84002410D01*
X214311000Y-79866410D02*
X214311000Y-83934410D01*
X214351000Y-79936410D02*
X214351000Y-83864410D01*
X214391000Y-80010410D02*
X214391000Y-83790410D01*
X214431000Y-80087410D02*
X214431000Y-83713410D01*
X214471000Y-80169410D02*
X214471000Y-83631410D01*
X214511000Y-80255410D02*
X214511000Y-83545410D01*
X214551000Y-80348410D02*
X214551000Y-83452410D01*
X214591000Y-80447410D02*
X214591000Y-83353410D01*
X214631000Y-80554410D02*
X214631000Y-83246410D01*
X214671000Y-80671410D02*
X214671000Y-83129410D01*
X214711000Y-80802410D02*
X214711000Y-82998410D01*
X214751000Y-80952410D02*
X214751000Y-82848410D01*
X214791000Y-81132410D02*
X214791000Y-82668410D01*
X214831000Y-81367410D02*
X214831000Y-82433410D01*
X214870000Y-81900410D02*
G75*
G03*
X214870000Y-81900410I-4120000J0D01*
G01*
%TO.C,J2*%
X214630000Y-101330000D02*
X214630000Y-100000000D01*
X215960000Y-101330000D02*
X214630000Y-101330000D01*
X217230000Y-101330000D02*
X222370000Y-101330000D01*
X217230000Y-101330000D02*
X217230000Y-98670000D01*
X222370000Y-101330000D02*
X222370000Y-98670000D01*
X217230000Y-98670000D02*
X222370000Y-98670000D01*
%TO.C,R6*%
X168000000Y-79576136D02*
X168000000Y-78806136D01*
X166630000Y-78806136D02*
X169370000Y-78806136D01*
X169370000Y-78806136D02*
X169370000Y-72266136D01*
X166630000Y-72266136D02*
X166630000Y-78806136D01*
X169370000Y-72266136D02*
X166630000Y-72266136D01*
X168000000Y-71496136D02*
X168000000Y-72266136D01*
%TO.C,C6*%
X207296739Y-69301183D02*
X207926739Y-69301183D01*
X207611739Y-68986183D02*
X207611739Y-69616183D01*
X210796980Y-67910183D02*
X210796980Y-74370183D01*
X210836980Y-67910183D02*
X210836980Y-74370183D01*
X210876980Y-67910183D02*
X210876980Y-74370183D01*
X210916980Y-67912183D02*
X210916980Y-74368183D01*
X210956980Y-67913183D02*
X210956980Y-74367183D01*
X210996980Y-67916183D02*
X210996980Y-74364183D01*
X211036980Y-67918183D02*
X211036980Y-70100183D01*
X211036980Y-72180183D02*
X211036980Y-74362183D01*
X211076980Y-67922183D02*
X211076980Y-70100183D01*
X211076980Y-72180183D02*
X211076980Y-74358183D01*
X211116980Y-67925183D02*
X211116980Y-70100183D01*
X211116980Y-72180183D02*
X211116980Y-74355183D01*
X211156980Y-67929183D02*
X211156980Y-70100183D01*
X211156980Y-72180183D02*
X211156980Y-74351183D01*
X211196980Y-67934183D02*
X211196980Y-70100183D01*
X211196980Y-72180183D02*
X211196980Y-74346183D01*
X211236980Y-67939183D02*
X211236980Y-70100183D01*
X211236980Y-72180183D02*
X211236980Y-74341183D01*
X211276980Y-67945183D02*
X211276980Y-70100183D01*
X211276980Y-72180183D02*
X211276980Y-74335183D01*
X211316980Y-67951183D02*
X211316980Y-70100183D01*
X211316980Y-72180183D02*
X211316980Y-74329183D01*
X211356980Y-67958183D02*
X211356980Y-70100183D01*
X211356980Y-72180183D02*
X211356980Y-74322183D01*
X211396980Y-67965183D02*
X211396980Y-70100183D01*
X211396980Y-72180183D02*
X211396980Y-74315183D01*
X211436980Y-67973183D02*
X211436980Y-70100183D01*
X211436980Y-72180183D02*
X211436980Y-74307183D01*
X211476980Y-67981183D02*
X211476980Y-70100183D01*
X211476980Y-72180183D02*
X211476980Y-74299183D01*
X211517980Y-67990183D02*
X211517980Y-70100183D01*
X211517980Y-72180183D02*
X211517980Y-74290183D01*
X211557980Y-67999183D02*
X211557980Y-70100183D01*
X211557980Y-72180183D02*
X211557980Y-74281183D01*
X211597980Y-68009183D02*
X211597980Y-70100183D01*
X211597980Y-72180183D02*
X211597980Y-74271183D01*
X211637980Y-68019183D02*
X211637980Y-70100183D01*
X211637980Y-72180183D02*
X211637980Y-74261183D01*
X211677980Y-68030183D02*
X211677980Y-70100183D01*
X211677980Y-72180183D02*
X211677980Y-74250183D01*
X211717980Y-68042183D02*
X211717980Y-70100183D01*
X211717980Y-72180183D02*
X211717980Y-74238183D01*
X211757980Y-68054183D02*
X211757980Y-70100183D01*
X211757980Y-72180183D02*
X211757980Y-74226183D01*
X211797980Y-68066183D02*
X211797980Y-70100183D01*
X211797980Y-72180183D02*
X211797980Y-74214183D01*
X211837980Y-68079183D02*
X211837980Y-70100183D01*
X211837980Y-72180183D02*
X211837980Y-74201183D01*
X211877980Y-68093183D02*
X211877980Y-70100183D01*
X211877980Y-72180183D02*
X211877980Y-74187183D01*
X211917980Y-68107183D02*
X211917980Y-70100183D01*
X211917980Y-72180183D02*
X211917980Y-74173183D01*
X211957980Y-68122183D02*
X211957980Y-70100183D01*
X211957980Y-72180183D02*
X211957980Y-74158183D01*
X211997980Y-68138183D02*
X211997980Y-70100183D01*
X211997980Y-72180183D02*
X211997980Y-74142183D01*
X212037980Y-68154183D02*
X212037980Y-70100183D01*
X212037980Y-72180183D02*
X212037980Y-74126183D01*
X212077980Y-68170183D02*
X212077980Y-70100183D01*
X212077980Y-72180183D02*
X212077980Y-74110183D01*
X212117980Y-68188183D02*
X212117980Y-70100183D01*
X212117980Y-72180183D02*
X212117980Y-74092183D01*
X212157980Y-68206183D02*
X212157980Y-70100183D01*
X212157980Y-72180183D02*
X212157980Y-74074183D01*
X212197980Y-68224183D02*
X212197980Y-70100183D01*
X212197980Y-72180183D02*
X212197980Y-74056183D01*
X212237980Y-68244183D02*
X212237980Y-70100183D01*
X212237980Y-72180183D02*
X212237980Y-74036183D01*
X212277980Y-68264183D02*
X212277980Y-70100183D01*
X212277980Y-72180183D02*
X212277980Y-74016183D01*
X212317980Y-68284183D02*
X212317980Y-70100183D01*
X212317980Y-72180183D02*
X212317980Y-73996183D01*
X212357980Y-68306183D02*
X212357980Y-70100183D01*
X212357980Y-72180183D02*
X212357980Y-73974183D01*
X212397980Y-68328183D02*
X212397980Y-70100183D01*
X212397980Y-72180183D02*
X212397980Y-73952183D01*
X212437980Y-68350183D02*
X212437980Y-70100183D01*
X212437980Y-72180183D02*
X212437980Y-73930183D01*
X212477980Y-68374183D02*
X212477980Y-70100183D01*
X212477980Y-72180183D02*
X212477980Y-73906183D01*
X212517980Y-68398183D02*
X212517980Y-70100183D01*
X212517980Y-72180183D02*
X212517980Y-73882183D01*
X212557980Y-68424183D02*
X212557980Y-70100183D01*
X212557980Y-72180183D02*
X212557980Y-73856183D01*
X212597980Y-68450183D02*
X212597980Y-70100183D01*
X212597980Y-72180183D02*
X212597980Y-73830183D01*
X212637980Y-68476183D02*
X212637980Y-70100183D01*
X212637980Y-72180183D02*
X212637980Y-73804183D01*
X212677980Y-68504183D02*
X212677980Y-70100183D01*
X212677980Y-72180183D02*
X212677980Y-73776183D01*
X212717980Y-68533183D02*
X212717980Y-70100183D01*
X212717980Y-72180183D02*
X212717980Y-73747183D01*
X212757980Y-68562183D02*
X212757980Y-70100183D01*
X212757980Y-72180183D02*
X212757980Y-73718183D01*
X212797980Y-68592183D02*
X212797980Y-70100183D01*
X212797980Y-72180183D02*
X212797980Y-73688183D01*
X212837980Y-68624183D02*
X212837980Y-70100183D01*
X212837980Y-72180183D02*
X212837980Y-73656183D01*
X212877980Y-68656183D02*
X212877980Y-70100183D01*
X212877980Y-72180183D02*
X212877980Y-73624183D01*
X212917980Y-68690183D02*
X212917980Y-70100183D01*
X212917980Y-72180183D02*
X212917980Y-73590183D01*
X212957980Y-68724183D02*
X212957980Y-70100183D01*
X212957980Y-72180183D02*
X212957980Y-73556183D01*
X212997980Y-68760183D02*
X212997980Y-70100183D01*
X212997980Y-72180183D02*
X212997980Y-73520183D01*
X213037980Y-68797183D02*
X213037980Y-70100183D01*
X213037980Y-72180183D02*
X213037980Y-73483183D01*
X213077980Y-68835183D02*
X213077980Y-70100183D01*
X213077980Y-72180183D02*
X213077980Y-73445183D01*
X213117980Y-68875183D02*
X213117980Y-73405183D01*
X213157980Y-68916183D02*
X213157980Y-73364183D01*
X213197980Y-68958183D02*
X213197980Y-73322183D01*
X213237980Y-69003183D02*
X213237980Y-73277183D01*
X213277980Y-69048183D02*
X213277980Y-73232183D01*
X213317980Y-69096183D02*
X213317980Y-73184183D01*
X213357980Y-69145183D02*
X213357980Y-73135183D01*
X213397980Y-69196183D02*
X213397980Y-73084183D01*
X213437980Y-69250183D02*
X213437980Y-73030183D01*
X213477980Y-69306183D02*
X213477980Y-72974183D01*
X213517980Y-69364183D02*
X213517980Y-72916183D01*
X213557980Y-69426183D02*
X213557980Y-72854183D01*
X213597980Y-69490183D02*
X213597980Y-72790183D01*
X213637980Y-69559183D02*
X213637980Y-72721183D01*
X213677980Y-69631183D02*
X213677980Y-72649183D01*
X213717980Y-69708183D02*
X213717980Y-72572183D01*
X213757980Y-69790183D02*
X213757980Y-72490183D01*
X213797980Y-69878183D02*
X213797980Y-72402183D01*
X213837980Y-69975183D02*
X213837980Y-72305183D01*
X213877980Y-70081183D02*
X213877980Y-72199183D01*
X213917980Y-70200183D02*
X213917980Y-72080183D01*
X213957980Y-70338183D02*
X213957980Y-71942183D01*
X213997980Y-70507183D02*
X213997980Y-71773183D01*
X214037980Y-70738183D02*
X214037980Y-71542183D01*
X214066980Y-71140183D02*
G75*
G03*
X214066980Y-71140183I-3270000J0D01*
G01*
%TO.C,C1*%
X129003198Y-90339000D02*
X128373198Y-90339000D01*
X128688198Y-90654000D02*
X128688198Y-90024000D01*
X125502957Y-91730000D02*
X125502957Y-85270000D01*
X125462957Y-91730000D02*
X125462957Y-85270000D01*
X125422957Y-91730000D02*
X125422957Y-85270000D01*
X125382957Y-91728000D02*
X125382957Y-85272000D01*
X125342957Y-91727000D02*
X125342957Y-85273000D01*
X125302957Y-91724000D02*
X125302957Y-85276000D01*
X125262957Y-91722000D02*
X125262957Y-89540000D01*
X125262957Y-87460000D02*
X125262957Y-85278000D01*
X125222957Y-91718000D02*
X125222957Y-89540000D01*
X125222957Y-87460000D02*
X125222957Y-85282000D01*
X125182957Y-91715000D02*
X125182957Y-89540000D01*
X125182957Y-87460000D02*
X125182957Y-85285000D01*
X125142957Y-91711000D02*
X125142957Y-89540000D01*
X125142957Y-87460000D02*
X125142957Y-85289000D01*
X125102957Y-91706000D02*
X125102957Y-89540000D01*
X125102957Y-87460000D02*
X125102957Y-85294000D01*
X125062957Y-91701000D02*
X125062957Y-89540000D01*
X125062957Y-87460000D02*
X125062957Y-85299000D01*
X125022957Y-91695000D02*
X125022957Y-89540000D01*
X125022957Y-87460000D02*
X125022957Y-85305000D01*
X124982957Y-91689000D02*
X124982957Y-89540000D01*
X124982957Y-87460000D02*
X124982957Y-85311000D01*
X124942957Y-91682000D02*
X124942957Y-89540000D01*
X124942957Y-87460000D02*
X124942957Y-85318000D01*
X124902957Y-91675000D02*
X124902957Y-89540000D01*
X124902957Y-87460000D02*
X124902957Y-85325000D01*
X124862957Y-91667000D02*
X124862957Y-89540000D01*
X124862957Y-87460000D02*
X124862957Y-85333000D01*
X124822957Y-91659000D02*
X124822957Y-89540000D01*
X124822957Y-87460000D02*
X124822957Y-85341000D01*
X124781957Y-91650000D02*
X124781957Y-89540000D01*
X124781957Y-87460000D02*
X124781957Y-85350000D01*
X124741957Y-91641000D02*
X124741957Y-89540000D01*
X124741957Y-87460000D02*
X124741957Y-85359000D01*
X124701957Y-91631000D02*
X124701957Y-89540000D01*
X124701957Y-87460000D02*
X124701957Y-85369000D01*
X124661957Y-91621000D02*
X124661957Y-89540000D01*
X124661957Y-87460000D02*
X124661957Y-85379000D01*
X124621957Y-91610000D02*
X124621957Y-89540000D01*
X124621957Y-87460000D02*
X124621957Y-85390000D01*
X124581957Y-91598000D02*
X124581957Y-89540000D01*
X124581957Y-87460000D02*
X124581957Y-85402000D01*
X124541957Y-91586000D02*
X124541957Y-89540000D01*
X124541957Y-87460000D02*
X124541957Y-85414000D01*
X124501957Y-91574000D02*
X124501957Y-89540000D01*
X124501957Y-87460000D02*
X124501957Y-85426000D01*
X124461957Y-91561000D02*
X124461957Y-89540000D01*
X124461957Y-87460000D02*
X124461957Y-85439000D01*
X124421957Y-91547000D02*
X124421957Y-89540000D01*
X124421957Y-87460000D02*
X124421957Y-85453000D01*
X124381957Y-91533000D02*
X124381957Y-89540000D01*
X124381957Y-87460000D02*
X124381957Y-85467000D01*
X124341957Y-91518000D02*
X124341957Y-89540000D01*
X124341957Y-87460000D02*
X124341957Y-85482000D01*
X124301957Y-91502000D02*
X124301957Y-89540000D01*
X124301957Y-87460000D02*
X124301957Y-85498000D01*
X124261957Y-91486000D02*
X124261957Y-89540000D01*
X124261957Y-87460000D02*
X124261957Y-85514000D01*
X124221957Y-91470000D02*
X124221957Y-89540000D01*
X124221957Y-87460000D02*
X124221957Y-85530000D01*
X124181957Y-91452000D02*
X124181957Y-89540000D01*
X124181957Y-87460000D02*
X124181957Y-85548000D01*
X124141957Y-91434000D02*
X124141957Y-89540000D01*
X124141957Y-87460000D02*
X124141957Y-85566000D01*
X124101957Y-91416000D02*
X124101957Y-89540000D01*
X124101957Y-87460000D02*
X124101957Y-85584000D01*
X124061957Y-91396000D02*
X124061957Y-89540000D01*
X124061957Y-87460000D02*
X124061957Y-85604000D01*
X124021957Y-91376000D02*
X124021957Y-89540000D01*
X124021957Y-87460000D02*
X124021957Y-85624000D01*
X123981957Y-91356000D02*
X123981957Y-89540000D01*
X123981957Y-87460000D02*
X123981957Y-85644000D01*
X123941957Y-91334000D02*
X123941957Y-89540000D01*
X123941957Y-87460000D02*
X123941957Y-85666000D01*
X123901957Y-91312000D02*
X123901957Y-89540000D01*
X123901957Y-87460000D02*
X123901957Y-85688000D01*
X123861957Y-91290000D02*
X123861957Y-89540000D01*
X123861957Y-87460000D02*
X123861957Y-85710000D01*
X123821957Y-91266000D02*
X123821957Y-89540000D01*
X123821957Y-87460000D02*
X123821957Y-85734000D01*
X123781957Y-91242000D02*
X123781957Y-89540000D01*
X123781957Y-87460000D02*
X123781957Y-85758000D01*
X123741957Y-91216000D02*
X123741957Y-89540000D01*
X123741957Y-87460000D02*
X123741957Y-85784000D01*
X123701957Y-91190000D02*
X123701957Y-89540000D01*
X123701957Y-87460000D02*
X123701957Y-85810000D01*
X123661957Y-91164000D02*
X123661957Y-89540000D01*
X123661957Y-87460000D02*
X123661957Y-85836000D01*
X123621957Y-91136000D02*
X123621957Y-89540000D01*
X123621957Y-87460000D02*
X123621957Y-85864000D01*
X123581957Y-91107000D02*
X123581957Y-89540000D01*
X123581957Y-87460000D02*
X123581957Y-85893000D01*
X123541957Y-91078000D02*
X123541957Y-89540000D01*
X123541957Y-87460000D02*
X123541957Y-85922000D01*
X123501957Y-91048000D02*
X123501957Y-89540000D01*
X123501957Y-87460000D02*
X123501957Y-85952000D01*
X123461957Y-91016000D02*
X123461957Y-89540000D01*
X123461957Y-87460000D02*
X123461957Y-85984000D01*
X123421957Y-90984000D02*
X123421957Y-89540000D01*
X123421957Y-87460000D02*
X123421957Y-86016000D01*
X123381957Y-90950000D02*
X123381957Y-89540000D01*
X123381957Y-87460000D02*
X123381957Y-86050000D01*
X123341957Y-90916000D02*
X123341957Y-89540000D01*
X123341957Y-87460000D02*
X123341957Y-86084000D01*
X123301957Y-90880000D02*
X123301957Y-89540000D01*
X123301957Y-87460000D02*
X123301957Y-86120000D01*
X123261957Y-90843000D02*
X123261957Y-89540000D01*
X123261957Y-87460000D02*
X123261957Y-86157000D01*
X123221957Y-90805000D02*
X123221957Y-89540000D01*
X123221957Y-87460000D02*
X123221957Y-86195000D01*
X123181957Y-90765000D02*
X123181957Y-86235000D01*
X123141957Y-90724000D02*
X123141957Y-86276000D01*
X123101957Y-90682000D02*
X123101957Y-86318000D01*
X123061957Y-90637000D02*
X123061957Y-86363000D01*
X123021957Y-90592000D02*
X123021957Y-86408000D01*
X122981957Y-90544000D02*
X122981957Y-86456000D01*
X122941957Y-90495000D02*
X122941957Y-86505000D01*
X122901957Y-90444000D02*
X122901957Y-86556000D01*
X122861957Y-90390000D02*
X122861957Y-86610000D01*
X122821957Y-90334000D02*
X122821957Y-86666000D01*
X122781957Y-90276000D02*
X122781957Y-86724000D01*
X122741957Y-90214000D02*
X122741957Y-86786000D01*
X122701957Y-90150000D02*
X122701957Y-86850000D01*
X122661957Y-90081000D02*
X122661957Y-86919000D01*
X122621957Y-90009000D02*
X122621957Y-86991000D01*
X122581957Y-89932000D02*
X122581957Y-87068000D01*
X122541957Y-89850000D02*
X122541957Y-87150000D01*
X122501957Y-89762000D02*
X122501957Y-87238000D01*
X122461957Y-89665000D02*
X122461957Y-87335000D01*
X122421957Y-89559000D02*
X122421957Y-87441000D01*
X122381957Y-89440000D02*
X122381957Y-87560000D01*
X122341957Y-89302000D02*
X122341957Y-87698000D01*
X122301957Y-89133000D02*
X122301957Y-87867000D01*
X122261957Y-88902000D02*
X122261957Y-88098000D01*
X128772957Y-88500000D02*
G75*
G03*
X128772957Y-88500000I-3270000J0D01*
G01*
%TO.C,R1*%
X160370184Y-58540000D02*
X160370184Y-57770000D01*
X159000184Y-57770000D02*
X161740184Y-57770000D01*
X161740184Y-57770000D02*
X161740184Y-51230000D01*
X159000184Y-51230000D02*
X159000184Y-57770000D01*
X161740184Y-51230000D02*
X159000184Y-51230000D01*
X160370184Y-50460000D02*
X160370184Y-51230000D01*
%TO.C,R0XA1*%
X179460000Y-112673505D02*
X180230000Y-112673505D01*
X180230000Y-111303505D02*
X180230000Y-114043505D01*
X180230000Y-114043505D02*
X186770000Y-114043505D01*
X186770000Y-111303505D02*
X180230000Y-111303505D01*
X186770000Y-114043505D02*
X186770000Y-111303505D01*
X187540000Y-112673505D02*
X186770000Y-112673505D01*
D11*
%TO.C,TP8*%
X155780866Y-49427642D02*
G75*
G03*
X155780866Y-49427642I-1750000J0D01*
G01*
D12*
%TO.C,R9*%
X209000000Y-98540000D02*
X209000000Y-97770000D01*
X207630000Y-97770000D02*
X210370000Y-97770000D01*
X210370000Y-97770000D02*
X210370000Y-91230000D01*
X207630000Y-91230000D02*
X207630000Y-97770000D01*
X210370000Y-91230000D02*
X207630000Y-91230000D01*
X209000000Y-90460000D02*
X209000000Y-91230000D01*
D11*
%TO.C,TP6*%
X119250000Y-83500000D02*
G75*
G03*
X119250000Y-83500000I-1750000J0D01*
G01*
D12*
%TO.C,R2*%
X152500000Y-79540000D02*
X152500000Y-78770000D01*
X151130000Y-78770000D02*
X153870000Y-78770000D01*
X153870000Y-78770000D02*
X153870000Y-72230000D01*
X151130000Y-72230000D02*
X151130000Y-78770000D01*
X153870000Y-72230000D02*
X151130000Y-72230000D01*
X152500000Y-71460000D02*
X152500000Y-72230000D01*
%TO.C,J1*%
X145082957Y-79670000D02*
X145082957Y-81000000D01*
X143752957Y-79670000D02*
X145082957Y-79670000D01*
X142482957Y-79670000D02*
X137342957Y-79670000D01*
X142482957Y-79670000D02*
X142482957Y-82330000D01*
X137342957Y-79670000D02*
X137342957Y-82330000D01*
X142482957Y-82330000D02*
X137342957Y-82330000D01*
%TO.C,C2*%
X203339000Y-96067380D02*
X203339000Y-96697380D01*
X203654000Y-96382380D02*
X203024000Y-96382380D01*
X204730000Y-99567621D02*
X198270000Y-99567621D01*
X204730000Y-99607621D02*
X198270000Y-99607621D01*
X204730000Y-99647621D02*
X198270000Y-99647621D01*
X204728000Y-99687621D02*
X198272000Y-99687621D01*
X204727000Y-99727621D02*
X198273000Y-99727621D01*
X204724000Y-99767621D02*
X198276000Y-99767621D01*
X204722000Y-99807621D02*
X202540000Y-99807621D01*
X200460000Y-99807621D02*
X198278000Y-99807621D01*
X204718000Y-99847621D02*
X202540000Y-99847621D01*
X200460000Y-99847621D02*
X198282000Y-99847621D01*
X204715000Y-99887621D02*
X202540000Y-99887621D01*
X200460000Y-99887621D02*
X198285000Y-99887621D01*
X204711000Y-99927621D02*
X202540000Y-99927621D01*
X200460000Y-99927621D02*
X198289000Y-99927621D01*
X204706000Y-99967621D02*
X202540000Y-99967621D01*
X200460000Y-99967621D02*
X198294000Y-99967621D01*
X204701000Y-100007621D02*
X202540000Y-100007621D01*
X200460000Y-100007621D02*
X198299000Y-100007621D01*
X204695000Y-100047621D02*
X202540000Y-100047621D01*
X200460000Y-100047621D02*
X198305000Y-100047621D01*
X204689000Y-100087621D02*
X202540000Y-100087621D01*
X200460000Y-100087621D02*
X198311000Y-100087621D01*
X204682000Y-100127621D02*
X202540000Y-100127621D01*
X200460000Y-100127621D02*
X198318000Y-100127621D01*
X204675000Y-100167621D02*
X202540000Y-100167621D01*
X200460000Y-100167621D02*
X198325000Y-100167621D01*
X204667000Y-100207621D02*
X202540000Y-100207621D01*
X200460000Y-100207621D02*
X198333000Y-100207621D01*
X204659000Y-100247621D02*
X202540000Y-100247621D01*
X200460000Y-100247621D02*
X198341000Y-100247621D01*
X204650000Y-100288621D02*
X202540000Y-100288621D01*
X200460000Y-100288621D02*
X198350000Y-100288621D01*
X204641000Y-100328621D02*
X202540000Y-100328621D01*
X200460000Y-100328621D02*
X198359000Y-100328621D01*
X204631000Y-100368621D02*
X202540000Y-100368621D01*
X200460000Y-100368621D02*
X198369000Y-100368621D01*
X204621000Y-100408621D02*
X202540000Y-100408621D01*
X200460000Y-100408621D02*
X198379000Y-100408621D01*
X204610000Y-100448621D02*
X202540000Y-100448621D01*
X200460000Y-100448621D02*
X198390000Y-100448621D01*
X204598000Y-100488621D02*
X202540000Y-100488621D01*
X200460000Y-100488621D02*
X198402000Y-100488621D01*
X204586000Y-100528621D02*
X202540000Y-100528621D01*
X200460000Y-100528621D02*
X198414000Y-100528621D01*
X204574000Y-100568621D02*
X202540000Y-100568621D01*
X200460000Y-100568621D02*
X198426000Y-100568621D01*
X204561000Y-100608621D02*
X202540000Y-100608621D01*
X200460000Y-100608621D02*
X198439000Y-100608621D01*
X204547000Y-100648621D02*
X202540000Y-100648621D01*
X200460000Y-100648621D02*
X198453000Y-100648621D01*
X204533000Y-100688621D02*
X202540000Y-100688621D01*
X200460000Y-100688621D02*
X198467000Y-100688621D01*
X204518000Y-100728621D02*
X202540000Y-100728621D01*
X200460000Y-100728621D02*
X198482000Y-100728621D01*
X204502000Y-100768621D02*
X202540000Y-100768621D01*
X200460000Y-100768621D02*
X198498000Y-100768621D01*
X204486000Y-100808621D02*
X202540000Y-100808621D01*
X200460000Y-100808621D02*
X198514000Y-100808621D01*
X204470000Y-100848621D02*
X202540000Y-100848621D01*
X200460000Y-100848621D02*
X198530000Y-100848621D01*
X204452000Y-100888621D02*
X202540000Y-100888621D01*
X200460000Y-100888621D02*
X198548000Y-100888621D01*
X204434000Y-100928621D02*
X202540000Y-100928621D01*
X200460000Y-100928621D02*
X198566000Y-100928621D01*
X204416000Y-100968621D02*
X202540000Y-100968621D01*
X200460000Y-100968621D02*
X198584000Y-100968621D01*
X204396000Y-101008621D02*
X202540000Y-101008621D01*
X200460000Y-101008621D02*
X198604000Y-101008621D01*
X204376000Y-101048621D02*
X202540000Y-101048621D01*
X200460000Y-101048621D02*
X198624000Y-101048621D01*
X204356000Y-101088621D02*
X202540000Y-101088621D01*
X200460000Y-101088621D02*
X198644000Y-101088621D01*
X204334000Y-101128621D02*
X202540000Y-101128621D01*
X200460000Y-101128621D02*
X198666000Y-101128621D01*
X204312000Y-101168621D02*
X202540000Y-101168621D01*
X200460000Y-101168621D02*
X198688000Y-101168621D01*
X204290000Y-101208621D02*
X202540000Y-101208621D01*
X200460000Y-101208621D02*
X198710000Y-101208621D01*
X204266000Y-101248621D02*
X202540000Y-101248621D01*
X200460000Y-101248621D02*
X198734000Y-101248621D01*
X204242000Y-101288621D02*
X202540000Y-101288621D01*
X200460000Y-101288621D02*
X198758000Y-101288621D01*
X204216000Y-101328621D02*
X202540000Y-101328621D01*
X200460000Y-101328621D02*
X198784000Y-101328621D01*
X204190000Y-101368621D02*
X202540000Y-101368621D01*
X200460000Y-101368621D02*
X198810000Y-101368621D01*
X204164000Y-101408621D02*
X202540000Y-101408621D01*
X200460000Y-101408621D02*
X198836000Y-101408621D01*
X204136000Y-101448621D02*
X202540000Y-101448621D01*
X200460000Y-101448621D02*
X198864000Y-101448621D01*
X204107000Y-101488621D02*
X202540000Y-101488621D01*
X200460000Y-101488621D02*
X198893000Y-101488621D01*
X204078000Y-101528621D02*
X202540000Y-101528621D01*
X200460000Y-101528621D02*
X198922000Y-101528621D01*
X204048000Y-101568621D02*
X202540000Y-101568621D01*
X200460000Y-101568621D02*
X198952000Y-101568621D01*
X204016000Y-101608621D02*
X202540000Y-101608621D01*
X200460000Y-101608621D02*
X198984000Y-101608621D01*
X203984000Y-101648621D02*
X202540000Y-101648621D01*
X200460000Y-101648621D02*
X199016000Y-101648621D01*
X203950000Y-101688621D02*
X202540000Y-101688621D01*
X200460000Y-101688621D02*
X199050000Y-101688621D01*
X203916000Y-101728621D02*
X202540000Y-101728621D01*
X200460000Y-101728621D02*
X199084000Y-101728621D01*
X203880000Y-101768621D02*
X202540000Y-101768621D01*
X200460000Y-101768621D02*
X199120000Y-101768621D01*
X203843000Y-101808621D02*
X202540000Y-101808621D01*
X200460000Y-101808621D02*
X199157000Y-101808621D01*
X203805000Y-101848621D02*
X202540000Y-101848621D01*
X200460000Y-101848621D02*
X199195000Y-101848621D01*
X203765000Y-101888621D02*
X199235000Y-101888621D01*
X203724000Y-101928621D02*
X199276000Y-101928621D01*
X203682000Y-101968621D02*
X199318000Y-101968621D01*
X203637000Y-102008621D02*
X199363000Y-102008621D01*
X203592000Y-102048621D02*
X199408000Y-102048621D01*
X203544000Y-102088621D02*
X199456000Y-102088621D01*
X203495000Y-102128621D02*
X199505000Y-102128621D01*
X203444000Y-102168621D02*
X199556000Y-102168621D01*
X203390000Y-102208621D02*
X199610000Y-102208621D01*
X203334000Y-102248621D02*
X199666000Y-102248621D01*
X203276000Y-102288621D02*
X199724000Y-102288621D01*
X203214000Y-102328621D02*
X199786000Y-102328621D01*
X203150000Y-102368621D02*
X199850000Y-102368621D01*
X203081000Y-102408621D02*
X199919000Y-102408621D01*
X203009000Y-102448621D02*
X199991000Y-102448621D01*
X202932000Y-102488621D02*
X200068000Y-102488621D01*
X202850000Y-102528621D02*
X200150000Y-102528621D01*
X202762000Y-102568621D02*
X200238000Y-102568621D01*
X202665000Y-102608621D02*
X200335000Y-102608621D01*
X202559000Y-102648621D02*
X200441000Y-102648621D01*
X202440000Y-102688621D02*
X200560000Y-102688621D01*
X202302000Y-102728621D02*
X200698000Y-102728621D01*
X202133000Y-102768621D02*
X200867000Y-102768621D01*
X201902000Y-102808621D02*
X201098000Y-102808621D01*
X204770000Y-99567621D02*
G75*
G03*
X204770000Y-99567621I-3270000J0D01*
G01*
%TO.C,R10*%
X191000000Y-91040000D02*
X191000000Y-90270000D01*
X189630000Y-90270000D02*
X192370000Y-90270000D01*
X192370000Y-90270000D02*
X192370000Y-83730000D01*
X189630000Y-83730000D02*
X189630000Y-90270000D01*
X192370000Y-83730000D02*
X189630000Y-83730000D01*
X191000000Y-82960000D02*
X191000000Y-83730000D01*
%TO.C,R4*%
X168001127Y-106631001D02*
X168001127Y-105861001D01*
X166631127Y-105861001D02*
X169371127Y-105861001D01*
X169371127Y-105861001D02*
X169371127Y-99321001D01*
X166631127Y-99321001D02*
X166631127Y-105861001D01*
X169371127Y-99321001D02*
X166631127Y-99321001D01*
X168001127Y-98551001D02*
X168001127Y-99321001D01*
%TO.C,R11*%
X113500000Y-66960000D02*
X113500000Y-67730000D01*
X112130000Y-67730000D02*
X112130000Y-74270000D01*
X114870000Y-67730000D02*
X112130000Y-67730000D01*
X112130000Y-74270000D02*
X114870000Y-74270000D01*
X114870000Y-74270000D02*
X114870000Y-67730000D01*
X113500000Y-75040000D02*
X113500000Y-74270000D01*
%TD*%
M02*
