%TF.GenerationSoftware,KiCad,Pcbnew,(7.0.0)*%
%TF.CreationDate,2023-03-04T17:37:48+02:00*%
%TF.ProjectId,efectul RN  asupra caract de frecv,65666563-7475-46c2-9052-4e2020617375,rev?*%
%TF.SameCoordinates,Original*%
%TF.FileFunction,Copper,L2,Bot*%
%TF.FilePolarity,Positive*%
%FSLAX46Y46*%
G04 Gerber Fmt 4.6, Leading zero omitted, Abs format (unit mm)*
G04 Created by KiCad (PCBNEW (7.0.0)) date 2023-03-04 17:37:48*
%MOMM*%
%LPD*%
G01*
G04 APERTURE LIST*
%TA.AperFunction,ComponentPad*%
%ADD10C,1.600000*%
%TD*%
%TA.AperFunction,ComponentPad*%
%ADD11O,1.600000X1.600000*%
%TD*%
%TA.AperFunction,ComponentPad*%
%ADD12C,4.500000*%
%TD*%
%TA.AperFunction,ComponentPad*%
%ADD13R,2.600000X2.600000*%
%TD*%
%TA.AperFunction,ComponentPad*%
%ADD14C,2.600000*%
%TD*%
%TA.AperFunction,ComponentPad*%
%ADD15R,1.700000X1.700000*%
%TD*%
%TA.AperFunction,ComponentPad*%
%ADD16O,1.700000X1.700000*%
%TD*%
%TA.AperFunction,ComponentPad*%
%ADD17R,2.200000X2.200000*%
%TD*%
%TA.AperFunction,ComponentPad*%
%ADD18O,2.200000X2.200000*%
%TD*%
%TA.AperFunction,ComponentPad*%
%ADD19C,3.600000*%
%TD*%
%TA.AperFunction,ConnectorPad*%
%ADD20C,5.700000*%
%TD*%
%TA.AperFunction,ComponentPad*%
%ADD21C,2.800000*%
%TD*%
%TA.AperFunction,ComponentPad*%
%ADD22O,1.200000X1.600000*%
%TD*%
%TA.AperFunction,ComponentPad*%
%ADD23O,1.200000X1.200000*%
%TD*%
%TA.AperFunction,ComponentPad*%
%ADD24R,1.600000X1.600000*%
%TD*%
%TA.AperFunction,ComponentPad*%
%ADD25C,3.200000*%
%TD*%
%TA.AperFunction,ComponentPad*%
%ADD26R,1.800000X1.800000*%
%TD*%
%TA.AperFunction,ComponentPad*%
%ADD27C,1.800000*%
%TD*%
%TA.AperFunction,Conductor*%
%ADD28C,0.600000*%
%TD*%
G04 APERTURE END LIST*
D10*
%TO.P,R82,1*%
%TO.N,Net-(J3-Pin_4)*%
X189987553Y-59648839D03*
D11*
%TO.P,R82,2*%
%TO.N,+24V*%
X189987552Y-49488838D03*
%TD*%
D12*
%TO.P,J6,1,Pin_1*%
%TO.N,IN1*%
X104500000Y-66000000D03*
%TD*%
D10*
%TO.P,C7,1*%
%TO.N,GND*%
X218772224Y-54541257D03*
%TO.P,C7,2*%
%TO.N,+24V*%
X218772224Y-49541257D03*
%TD*%
%TO.P,R7,1*%
%TO.N,Net-(J3-Pin_1)*%
X182593972Y-73660000D03*
D11*
%TO.P,R7,2*%
%TO.N,Net-(J3-Pin_4)*%
X182593971Y-63499999D03*
%TD*%
D10*
%TO.P,R81,1*%
%TO.N,Net-(J3-Pin_4)*%
X182593972Y-59660000D03*
D11*
%TO.P,R81,2*%
%TO.N,+24V*%
X182593971Y-49499999D03*
%TD*%
D13*
%TO.P,J5,1,Pin_1*%
%TO.N,GND*%
X232999999Y-116999999D03*
D14*
%TO.P,J5,2,Pin_2*%
X233000000Y-112000000D03*
%TD*%
D15*
%TO.P,J3,1,Pin_1*%
%TO.N,Net-(J3-Pin_1)*%
X190000462Y-73648313D03*
D16*
%TO.P,J3,2,Pin_2*%
%TO.N,Net-(J3-Pin_2)*%
X190000462Y-71108313D03*
%TO.P,J3,3,Pin_3*%
X190000462Y-68568313D03*
%TO.P,J3,4,Pin_4*%
%TO.N,Net-(J3-Pin_4)*%
X190000462Y-66028313D03*
%TD*%
D17*
%TO.P,D2,1,K*%
%TO.N,+24V*%
X223496667Y-61999054D03*
D18*
%TO.P,D2,2,A*%
%TO.N,GND*%
X223496667Y-72159054D03*
%TD*%
D19*
%TO.P,H3,1*%
%TO.N,N/C*%
X231400000Y-51100000D03*
D20*
X231400000Y-51100000D03*
%TD*%
D21*
%TO.P,TP11,1,1*%
%TO.N,Net-(Q1-C)*%
X175500000Y-75500000D03*
%TD*%
D13*
%TO.P,J4,1,Pin_1*%
%TO.N,+24V*%
X232999999Y-66999999D03*
D14*
%TO.P,J4,2,Pin_2*%
X233000000Y-62000000D03*
%TD*%
D10*
%TO.P,R0XR1,1*%
%TO.N,GND*%
X222817482Y-112588413D03*
D11*
%TO.P,R0XR1,2*%
%TO.N,Net-(R0XR1-Pad2)*%
X212657481Y-112588412D03*
%TD*%
D10*
%TO.P,R5,1*%
%TO.N,Net-(R5-Pad1)*%
X184080000Y-97500000D03*
D11*
%TO.P,R5,2*%
%TO.N,Net-(Q1-E)*%
X173919999Y-97499999D03*
%TD*%
D21*
%TO.P,TP12,1,1*%
%TO.N,Net-(Q1-E)*%
X176000000Y-90000000D03*
%TD*%
D22*
%TO.P,Q1,1,E*%
%TO.N,Net-(Q1-E)*%
X167982956Y-89766967D03*
D23*
%TO.P,Q1,2,B*%
%TO.N,Net-(J1-Pin_1)*%
X169252956Y-88496967D03*
%TO.P,Q1,3,C*%
%TO.N,Net-(Q1-C)*%
X167982956Y-87226967D03*
%TD*%
D10*
%TO.P,RL1,1*%
%TO.N,Net-(J2-Pin_3)*%
X226000000Y-81887379D03*
D11*
%TO.P,RL1,2*%
%TO.N,GND*%
X225999999Y-92047378D03*
%TD*%
D22*
%TO.P,Q3,1,E*%
%TO.N,GND*%
X152499999Y-101210519D03*
D23*
%TO.P,Q3,2,B*%
%TO.N,Net-(Q3-B)*%
X153769999Y-99940519D03*
%TO.P,Q3,3,C*%
X152499999Y-98670519D03*
%TD*%
D24*
%TO.P,C3,1*%
%TO.N,Net-(C3-Pad1)*%
X186805685Y-123498321D03*
D10*
%TO.P,C3,2*%
%TO.N,GND*%
X186805686Y-120998322D03*
%TD*%
D12*
%TO.P,TP3,1,1*%
%TO.N,GND*%
X232000000Y-101500000D03*
%TD*%
D10*
%TO.P,Rix1,1*%
%TO.N,Net-(J1-Pin_3)*%
X136252957Y-88500000D03*
D11*
%TO.P,Rix1,2*%
%TO.N,Net-(J1-Pin_1)*%
X146412956Y-88499999D03*
%TD*%
D12*
%TO.P,TP1,1,1*%
%TO.N,GND*%
X141000000Y-122000000D03*
%TD*%
%TO.P,TP4,1,1*%
%TO.N,GND*%
X117000000Y-122000000D03*
%TD*%
D21*
%TO.P,TP10,1,1*%
%TO.N,Net-(J3-Pin_1)*%
X197632215Y-73641464D03*
%TD*%
D24*
%TO.P,C8,1*%
%TO.N,+24V*%
X209999999Y-49564686D03*
D10*
%TO.P,C8,2*%
%TO.N,GND*%
X210000000Y-53064687D03*
%TD*%
D19*
%TO.P,H2,1*%
%TO.N,N/C*%
X104600000Y-51100000D03*
D20*
X104600000Y-51100000D03*
%TD*%
D10*
%TO.P,R13,1*%
%TO.N,+24V*%
X199745800Y-49539662D03*
D11*
%TO.P,R13,2*%
%TO.N,Net-(D1-A)*%
X199745799Y-59699661D03*
%TD*%
D21*
%TO.P,TP9,1,1*%
%TO.N,Net-(Q2-C)*%
X197500000Y-88000000D03*
%TD*%
D12*
%TO.P,TP2,1,1*%
%TO.N,GND*%
X168000000Y-129500000D03*
%TD*%
D25*
%TO.P,S1,1*%
%TO.N,Net-(C2-Pad2)*%
X205208409Y-123486361D03*
%TO.P,S1,2*%
%TO.N,Net-(R5-Pad1)*%
X200608409Y-123486361D03*
%TO.P,S1,3*%
%TO.N,Net-(C3-Pad1)*%
X196008409Y-123486361D03*
%TO.P,S1,4*%
%TO.N,unconnected-(S1-Pad4)*%
X205208409Y-119166361D03*
%TO.P,S1,5*%
%TO.N,Net-(C4-Pad2)*%
X200608409Y-119166361D03*
%TO.P,S1,6*%
%TO.N,GND*%
X196008409Y-119166361D03*
%TO.P,S1,7*%
%TO.N,Net-(R0XR1-Pad2)*%
X205208409Y-112566361D03*
%TO.P,S1,8*%
%TO.N,Net-(J2-Pin_1)*%
X200608409Y-112566361D03*
%TO.P,S1,9*%
%TO.N,Net-(R0XA1-Pad2)*%
X196008409Y-112686361D03*
%TD*%
D22*
%TO.P,Q4,1,E*%
%TO.N,+24V*%
X168003152Y-62506444D03*
D23*
%TO.P,Q4,2,B*%
%TO.N,Net-(Q4-B)*%
X166733152Y-63776444D03*
%TO.P,Q4,3,C*%
X168003152Y-65046444D03*
%TD*%
D21*
%TO.P,TP5,1,1*%
%TO.N,Net-(J2-Pin_3)*%
X232000000Y-81862658D03*
%TD*%
D12*
%TO.P,J7,1,Pin_1*%
%TO.N,IN2*%
X104469226Y-88438745D03*
%TD*%
D19*
%TO.P,H1,1*%
%TO.N,N/C*%
X104600000Y-127900000D03*
D20*
X104600000Y-127900000D03*
%TD*%
D10*
%TO.P,R3,1*%
%TO.N,Net-(J1-Pin_1)*%
X160370184Y-80580000D03*
D11*
%TO.P,R3,2*%
%TO.N,Net-(R1-Pad1)*%
X160370183Y-70419999D03*
%TD*%
D26*
%TO.P,D1,1,K*%
%TO.N,GND*%
X199764838Y-67039999D03*
D27*
%TO.P,D1,2,A*%
%TO.N,Net-(D1-A)*%
X199764839Y-64500000D03*
%TD*%
D21*
%TO.P,TP7,1,1*%
%TO.N,IN1*%
X113500000Y-60500000D03*
%TD*%
D10*
%TO.P,R12,1*%
%TO.N,IN2*%
X113500000Y-101000000D03*
D11*
%TO.P,R12,2*%
%TO.N,GND*%
X113499999Y-111159999D03*
%TD*%
D22*
%TO.P,Q2,1,E*%
%TO.N,Net-(J3-Pin_1)*%
X182577884Y-79342007D03*
D23*
%TO.P,Q2,2,B*%
%TO.N,Net-(Q1-C)*%
X181307884Y-80612007D03*
%TO.P,Q2,3,C*%
%TO.N,Net-(Q2-C)*%
X182577884Y-81882007D03*
%TD*%
D24*
%TO.P,C4,1*%
%TO.N,Net-(C4-Pad1)*%
X190999999Y-98499999D03*
D10*
%TO.P,C4,2*%
%TO.N,Net-(C4-Pad2)*%
X191000000Y-101000000D03*
%TD*%
D24*
%TO.P,C5,1*%
%TO.N,Net-(Q2-C)*%
X208999999Y-81900409D03*
D10*
%TO.P,C5,2*%
%TO.N,Net-(J2-Pin_3)*%
X212500000Y-81900410D03*
%TD*%
D15*
%TO.P,J2,1,Pin_1*%
%TO.N,Net-(J2-Pin_1)*%
X215959999Y-99999999D03*
D16*
%TO.P,J2,2,Pin_2*%
X218499999Y-99999999D03*
%TO.P,J2,3,Pin_3*%
%TO.N,Net-(J2-Pin_3)*%
X221039999Y-99999999D03*
%TD*%
D10*
%TO.P,R6,1*%
%TO.N,Net-(Q1-C)*%
X168000000Y-80616136D03*
D11*
%TO.P,R6,2*%
%TO.N,Net-(Q4-B)*%
X167999999Y-70456135D03*
%TD*%
D24*
%TO.P,C6,1*%
%TO.N,Net-(J3-Pin_2)*%
X209546979Y-71140182D03*
D10*
%TO.P,C6,2*%
%TO.N,GND*%
X212046980Y-71140183D03*
%TD*%
D24*
%TO.P,C1,1*%
%TO.N,Net-(J1-Pin_3)*%
X126752956Y-88499999D03*
D10*
%TO.P,C1,2*%
%TO.N,IN2*%
X124252957Y-88500000D03*
%TD*%
%TO.P,R1,1*%
%TO.N,Net-(R1-Pad1)*%
X160370184Y-59580000D03*
D11*
%TO.P,R1,2*%
%TO.N,+24V*%
X160370183Y-49419999D03*
%TD*%
D10*
%TO.P,R0XA1,1*%
%TO.N,GND*%
X178420000Y-112673505D03*
D11*
%TO.P,R0XA1,2*%
%TO.N,Net-(R0XA1-Pad2)*%
X188579999Y-112673504D03*
%TD*%
D21*
%TO.P,TP8,1,1*%
%TO.N,+24V*%
X154030866Y-49427642D03*
%TD*%
D10*
%TO.P,R9,1*%
%TO.N,GND*%
X209000000Y-99580000D03*
D11*
%TO.P,R9,2*%
%TO.N,Net-(Q2-C)*%
X208999999Y-89419999D03*
%TD*%
D21*
%TO.P,TP6,1,1*%
%TO.N,IN2*%
X117500000Y-83500000D03*
%TD*%
D10*
%TO.P,R2,1*%
%TO.N,Net-(Q3-B)*%
X152500000Y-80580000D03*
D11*
%TO.P,R2,2*%
%TO.N,Net-(R1-Pad1)*%
X152499999Y-70419999D03*
%TD*%
D15*
%TO.P,J1,1,Pin_1*%
%TO.N,Net-(J1-Pin_1)*%
X143752956Y-80999999D03*
D16*
%TO.P,J1,2,Pin_2*%
X141212956Y-80999999D03*
%TO.P,J1,3,Pin_3*%
%TO.N,Net-(J1-Pin_3)*%
X138672956Y-80999999D03*
%TD*%
D24*
%TO.P,C2,1*%
%TO.N,Net-(Q2-C)*%
X201499999Y-98317620D03*
D10*
%TO.P,C2,2*%
%TO.N,Net-(C2-Pad2)*%
X201500000Y-100817621D03*
%TD*%
%TO.P,R10,1*%
%TO.N,Net-(C4-Pad1)*%
X191000000Y-92080000D03*
D11*
%TO.P,R10,2*%
%TO.N,Net-(Q2-C)*%
X190999999Y-81919999D03*
%TD*%
D10*
%TO.P,R4,1*%
%TO.N,GND*%
X168001127Y-107671001D03*
D11*
%TO.P,R4,2*%
%TO.N,Net-(Q1-E)*%
X168001126Y-97511000D03*
%TD*%
D19*
%TO.P,H4,1*%
%TO.N,N/C*%
X231400000Y-127900000D03*
D20*
X231400000Y-127900000D03*
%TD*%
D10*
%TO.P,R11,1*%
%TO.N,IN1*%
X113500000Y-65920000D03*
D11*
%TO.P,R11,2*%
%TO.N,IN2*%
X113499999Y-76079999D03*
%TD*%
D28*
%TO.N,Net-(C2-Pad2)*%
X208013639Y-123486361D02*
X208500000Y-123000000D01*
X208500000Y-123000000D02*
X208500000Y-102704405D01*
X206795595Y-101000000D02*
X201682379Y-101000000D01*
X205208409Y-123486361D02*
X208013639Y-123486361D01*
X201682379Y-101000000D02*
X201500000Y-100817621D01*
X208500000Y-102704405D02*
X206795595Y-101000000D01*
%TO.N,GND*%
X226000000Y-92047379D02*
X212952621Y-92047379D01*
X209000000Y-96000000D02*
X209000000Y-99580000D01*
X212952621Y-92047379D02*
X209000000Y-96000000D01*
%TO.N,Net-(C4-Pad2)*%
X200608409Y-117608409D02*
X200608409Y-119166361D01*
X193000000Y-116000000D02*
X199000000Y-116000000D01*
X199000000Y-116000000D02*
X200608409Y-117608409D01*
X191000000Y-101000000D02*
X191000000Y-114000000D01*
X191000000Y-114000000D02*
X193000000Y-116000000D01*
%TO.N,Net-(Q3-B)*%
X152500000Y-98670520D02*
X153770000Y-99940520D01*
X152500000Y-98670520D02*
X152500000Y-80580000D01*
%TO.N,Net-(R5-Pad1)*%
X199000000Y-128000000D02*
X200608409Y-126391591D01*
X200608409Y-126391591D02*
X200608409Y-123486361D01*
X184080000Y-126580000D02*
X185500000Y-128000000D01*
X185500000Y-128000000D02*
X199000000Y-128000000D01*
X184080000Y-97500000D02*
X184080000Y-126580000D01*
%TD*%
M02*
